<?xml version="1.0" encoding="UTF-8"?>
<svg width="500px" height="250px" viewBox="0 0 500 250" version="1.1" xmlns="http://www.w3.org/2000/svg" xmlns:xlink="http://www.w3.org/1999/xlink">
<g>
<path d="M249.9121,103.9099 C249.9121,93.7519 249.9131,84.3559 249.9111,74.9589 C249.9101,69.4529 250.0311,63.9439 249.8601,58.4449 C249.7211,53.9279 248.5971,49.6679 243.9021,47.7319 C239.0541,45.7329 234.1671,46.0339 229.8891,49.1529 C228.8211,49.9319 228.3241,52.1039 228.3111,53.6399 C228.1911,68.5629 228.2281,83.4869 228.2221,98.4099 C228.2211,99.9789 228.2221,101.5489 228.2221,103.5049 L214.7291,103.5049 C214.6461,102.3559 214.4781,101.1099 214.4761,99.8629 C214.4601,83.4909 214.3841,67.1179 214.5861,50.7489 C214.6081,48.9699 215.8281,46.6389 217.2451,45.5359 C225.9761,38.7439 235.6571,34.6539 247.0251,36.6899 C249.1251,37.0659 251.5651,37.4959 253.0801,38.7989 C256.7971,41.9959 259.9311,40.9269 263.9041,39.1739 C273.0221,35.1489 282.3551,34.2949 291.1711,40.2899 C295.5641,43.2789 298.6921,47.4649 298.7681,52.8459 C299.0051,69.6349 298.8551,86.4299 298.8551,103.5679 L285.3541,103.5679 C285.3541,101.4879 285.3591,99.5129 285.3541,97.5389 C285.3171,84.9329 285.3841,72.3269 285.2111,59.7249 C285.0521,48.0069 276.1971,42.8399 266.0161,48.5469 C264.7771,49.2419 263.6151,51.3229 263.6021,52.7719 C263.4681,68.5619 263.5211,84.3539 263.6501,100.1449 C263.6731,102.9019 262.8821,104.1309 259.9711,103.9529 C256.8311,103.7619 253.6701,103.9099 249.9121,103.9099" fill="#000000"></path>
<path d="M165.5063,103.6814 L151.8773,103.6814 L151.8773,98.3554 C151.8803,68.5094 151.9453,38.6624 151.7993,8.8174 C151.7823,5.3444 152.5743,3.4624 156.1323,2.7604 C159.0653,2.1834 161.8893,1.0454 165.2583,0.0004 L165.2583,42.8454 C166.6643,42.3164 167.5073,41.9954 168.3533,41.6814 C171.5923,40.4794 174.7463,38.9054 178.0863,38.1404 C194.5053,34.3804 205.7373,43.4354 205.7863,60.3144 C205.8233,73.2094 205.7993,86.1044 205.8023,98.9984 C205.8033,100.4164 205.8023,101.8334 205.8023,103.5904 L192.2203,103.5904 C192.1543,102.2184 192.0303,100.8274 192.0283,99.4364 C192.0153,87.7024 192.0273,75.9664 192.0193,64.2304 C192.0183,62.7824 192.0483,61.3234 191.8913,59.8894 C190.7143,49.1744 184.1443,45.2914 174.2303,49.4114 C173.6963,49.6334 173.1913,49.9244 172.6563,50.1424 C167.5693,52.2194 164.9313,55.1874 165.2903,61.5104 C165.9873,73.7854 165.5023,86.1284 165.5063,98.4454 C165.5073,100.0174 165.5063,101.5914 165.5063,103.6814" fill="#000000"></path>
<path d="M344.1269,61.6506 C345.3659,51.3576 340.3509,45.8546 330.9019,46.5626 C328.1959,46.7646 325.4719,47.3586 322.8679,48.1426 C320.4149,48.8816 318.1079,50.1086 315.4619,51.2386 C314.1839,48.4156 312.9489,45.6926 311.7419,43.0306 C321.9269,34.7246 340.5869,33.8376 350.0079,41.0356 C354.9229,44.7896 357.5099,49.7856 357.5649,55.9296 C357.6739,67.5026 357.6559,79.0776 357.5309,90.6506 C357.5169,92.0546 356.9129,93.8986 355.9159,94.7756 C346.5009,103.0396 335.5739,106.7946 323.1349,104.2956 C312.6529,102.1906 305.3509,92.1716 306.0349,81.7606 C306.7699,70.6056 314.7789,62.4286 326.1659,61.7166 C332.1649,61.3416 338.2069,61.6506 344.1269,61.6506 M344.3139,71.3476 C340.5529,71.3476 337.2689,71.3296 333.9829,71.3586 C332.6909,71.3686 331.3769,71.3606 330.1089,71.5776 C323.9959,72.6216 320.5329,75.8996 319.9169,81.1136 C319.2979,86.3546 322.5329,91.5866 327.7619,93.8086 C332.1119,95.6556 341.1269,94.0316 343.5659,90.8606 C344.0419,90.2426 344.2729,89.2866 344.2809,88.4826 C344.3419,83.0126 344.3139,77.5406 344.3139,71.3476" fill="#000000"></path>
<g transform="translate(0.000000, 35.267000)">
<path d="M8.9839,15.3294 C8.0249,13.1074 6.8439,10.3674 5.6939,7.7024 C14.7729,0.4354 31.6649,-1.2666 41.1719,3.9784 C47.8079,7.6404 51.3419,13.2724 51.4009,20.8804 C51.4889,32.3214 51.4919,43.7624 51.3499,55.2004 C51.3309,56.7434 50.7019,58.7894 49.6089,59.7304 C40.2489,67.7884 29.4069,71.4744 17.1399,69.0574 C6.2609,66.9124 -0.8071,56.8434 0.0739,45.7134 C0.9279,34.9104 9.1069,26.9944 20.4329,26.4044 C26.2989,26.0984 32.1939,26.3504 37.9019,26.3504 C40.3519,15.4274 32.3899,10.2994 24.7639,11.3324 C19.5649,12.0374 14.5199,13.8834 8.9839,15.3294 M38.2519,35.6814 C32.2779,36.1284 26.7849,36.0304 21.5159,37.0694 C15.6959,38.2154 12.8859,43.3944 14.0359,49.2834 C15.0519,54.4914 18.3729,57.7674 23.3429,59.0374 C28.5499,60.3694 33.3189,58.8044 37.4859,55.5374 C38.0199,55.1174 38.2119,54.0044 38.2199,53.2094 C38.2819,47.7404 38.2519,42.2704 38.2519,35.6814" fill="#000000"></path>
</g>
<path d="M57.5205,97.0456 C59.1345,94.4176 60.7775,91.7416 62.3225,89.2286 C66.2935,90.9396 69.9725,92.9066 73.8835,94.1106 C78.6985,95.5926 83.6415,95.3926 88.1495,92.7596 C93.7925,89.4626 93.9315,82.6616 88.2345,79.5436 C84.5885,77.5476 80.5215,76.3286 76.6635,74.7156 C74.0035,73.6036 71.2855,72.5856 68.7535,71.2236 C62.7475,67.9906 58.9055,63.2176 58.9965,56.0316 C59.0895,48.6116 62.3285,42.8496 68.8035,39.2966 C80.5205,32.8696 91.5745,35.7756 102.7885,42.0686 C100.8265,45.1676 99.0865,47.9166 97.5415,50.3586 C93.1575,48.9706 89.2775,47.3716 85.2395,46.6026 C82.8135,46.1396 80.0355,46.6046 77.6075,47.3146 C74.3325,48.2716 72.1975,50.7216 71.9955,54.2936 C71.7975,57.8286 74.3615,59.2846 77.1455,60.4556 C82.8675,62.8606 88.6325,65.1766 94.2935,67.7176 C100.9685,70.7126 105.4225,75.6416 105.7715,83.2326 C106.1235,90.9356 102.7905,96.9086 96.2385,101.0516 C84.7725,108.3026 67.2865,106.5786 57.5205,97.0456" fill="#000000"></path>
<path d="M116.6831,47.9284 C114.6091,47.7964 112.6151,47.6694 110.2731,47.5194 L110.2731,37.9364 C112.5061,37.7614 114.6131,37.5954 117.2421,37.3894 C117.2421,32.7204 117.0601,28.1184 117.3531,23.5474 C117.4391,22.2214 118.5961,20.3714 119.7601,19.8224 C123.0021,18.2924 126.5051,17.3184 130.5731,15.8904 L130.5731,37.5664 L142.1391,37.5664 L142.1391,47.6394 L130.8301,47.6394 C130.8301,49.6084 130.8291,51.1464 130.8301,52.6844 C130.8381,62.6694 130.8271,72.6534 130.8651,82.6374 C130.9101,94.1824 130.9311,94.1824 142.2581,96.6344 L142.2581,104.1534 C130.8461,107.1024 116.6471,101.1904 117.1371,86.5484 C117.5531,74.1194 117.1791,61.6664 117.1401,49.2234 C117.1401,48.9574 116.9601,48.6914 116.6831,47.9284" fill="#000000"></path>
<g transform="translate(335.000000, 119.267000)">
<path d="M8.1777,11.054 C11.1997,7.45 14.2217,3.845 17.2527,0.231 C19.4787,1.893 20.7207,2.82 22.4377,4.102 C18.8297,7.419 15.4637,10.515 11.8977,13.796 C16.3207,19.769 20.3887,25.266 24.7517,31.158 C20.0737,32.052 16.5137,32.075 14.0177,27.651 C12.3467,24.689 9.9477,22.139 7.1597,18.463 L7.1597,31.215 L0.5737,31.215 L0.5737,2.603 C2.4727,2.032 4.4897,1.425 6.8987,0.699 L6.8987,10.251 C7.3257,10.52 7.7517,10.786 8.1777,11.054" fill="#000000"></path>
</g>
<path d="M313.6758,120.406 C313.6758,126.3 313.6608,132.194 313.6808,138.088 C313.6978,143.713 315.2108,145.583 319.6878,145.6 C324.1958,145.618 326.2128,143.264 326.2368,137.884 C326.2588,132.419 326.2398,126.953 326.2398,121.246 L331.6848,121.246 C331.6848,128.366 332.0738,135.437 331.5568,142.44 C331.1678,147.694 325.4538,151.353 319.3058,151.265 C313.0498,151.176 307.7838,147.479 307.3528,142.102 C306.8658,136.055 306.7468,129.915 307.3008,123.893 C307.4458,122.315 310.6838,121.023 312.5008,119.6 C312.8938,119.869 313.2848,120.136 313.6758,120.406" fill="#000000"></path>
</g>
</svg>