<?xml version="1.0" encoding="UTF-8"?>
<svg width="500px" height="250px" viewBox="0 0 500 250" version="1.1" xmlns="http://www.w3.org/2000/svg" xmlns:xlink="http://www.w3.org/1999/xlink">
<g>
<path d="M284.5702,94.9736 C280.5742,101.4206 274.9242,105.8806 268.2382,109.0946 C260.8412,112.6496 252.9442,114.3126 244.8392,115.2816 C230.3852,117.0086 216.2792,114.5586 202.1552,112.0586 C191.4902,110.1706 180.8582,107.8956 170.1082,106.7226 C146.5162,104.1496 125.4702,109.9806 108.2142,127.0466 C105.1642,130.0626 106.4212,129.9786 102.4372,127.8226 C93.4682,122.9676 84.5162,118.0796 75.5592,113.2026 C73.5872,112.1286 73.5522,111.8896 75.2812,110.4906 C89.3912,99.0676 105.5852,92.0676 123.1612,87.9416 C142.1232,83.4896 160.8682,85.2686 179.4092,90.1206 C192.0842,93.4386 204.5722,97.4606 217.1922,100.9946 C227.8542,103.9816 238.7092,105.8686 249.8492,105.3266 C257.5112,104.9526 265.0552,103.7786 271.7232,99.7366 C274.5982,97.9936 277.1742,95.6326 279.5252,93.2056 C280.8202,91.8696 281.7012,89.8946 282.1592,88.0556 C282.6022,86.2776 283.3542,85.9396 284.9852,85.9946 C286.3252,86.0376 286.8482,86.3516 287.0032,87.7606 C287.4742,92.0476 291.0762,94.9536 295.6292,94.9106 C299.8382,94.8696 303.4292,91.8236 303.8052,87.6656 C304.0612,84.8376 303.9792,81.9716 303.9272,79.1246 C303.9012,77.6576 303.0432,77.1806 301.9792,78.0696 C297.7312,81.6186 292.9482,81.9316 288.0172,80.2016 C282.6352,78.3136 279.2422,74.2586 277.4822,68.9556 C274.8562,61.0436 276.0022,53.6866 281.5202,47.2866 C287.0372,40.8906 296.5842,40.2506 302.4562,44.9856 C304.5262,46.6536 305.0102,46.4106 306.1892,44.0006 C306.3862,43.5986 306.9932,43.1516 307.4182,43.1436 C311.1632,43.0766 314.9102,43.0716 318.6542,43.1506 C319.0672,43.1596 319.8422,43.8596 319.8012,44.1476 C319.6872,44.9596 319.3252,46.3446 318.9002,46.4066 C316.2702,46.7896 316.2862,48.4696 316.2982,50.5156 C316.3662,62.0426 316.3802,73.5706 316.3122,85.0976 C316.2702,92.3826 312.8922,97.8106 306.2432,100.7396 C299.4502,103.7316 292.9732,102.6746 287.2452,97.8546 C286.2922,97.0526 285.5322,96.0216 284.5702,94.9736 M303.9672,61.6406 C303.9672,60.0596 303.8562,58.4706 303.9912,56.9026 C304.2792,53.5376 302.1032,52.0076 300.0002,51.1586 C296.5152,49.7526 292.2072,51.2676 290.0232,54.5796 C288.0642,57.5526 287.7272,60.8586 288.3612,64.2306 C289.3982,69.7426 293.3302,72.9136 298.2402,72.4156 C301.8402,72.0506 303.9582,69.7496 303.9672,66.1896 C303.9712,64.6736 303.9672,63.1566 303.9672,61.6406"></path>
<path d="M90.7382,0.2392 C90.3092,1.0102 90.1032,1.5152 89.7842,1.9342 C83.0722,10.7602 76.3402,19.5692 69.6362,28.4012 C68.9512,29.3032 68.3752,29.7422 67.3502,28.8222 C59.2362,21.5292 46.4052,20.5522 36.7372,26.7332 C25.7192,33.7772 19.9602,44.0842 19.7722,57.0482 C19.5162,74.7942 33.4162,91.0022 50.9672,94.0382 C63.1972,96.1542 74.0752,93.1302 83.6242,85.2572 C83.8192,85.0952 84.0012,84.9182 84.1982,84.7592 C85.1832,83.9612 86.3022,83.6142 87.2672,84.5932 C88.2902,85.6322 87.7482,86.6892 86.8632,87.5852 C83.2222,91.2652 79.0632,94.2492 74.4902,96.6602 C44.2302,112.6122 8.5502,94.6602 1.4362,62.5142 C-2.7308,43.6842 2.3832,26.8042 14.0192,11.7722 C16.9142,8.0332 20.3812,4.7262 23.7002,1.3332 C24.3682,0.6502 25.5602,0.1262 26.5122,0.1222 C47.3372,0.0542 68.1612,0.0702 88.9852,0.0762 C89.4212,0.0762 89.8572,0.1542 90.7382,0.2392"></path>
<path d="M220.4374,67.3437 C223.0184,74.8507 233.9464,76.8347 239.4444,70.9537 C239.6614,70.7227 239.8044,70.3627 240.0644,70.2477 C240.7004,69.9677 241.3834,69.7967 242.0464,69.5827 C242.2074,70.2987 242.7014,71.1527 242.4714,71.7077 C240.9414,75.4047 238.0444,77.8307 234.5004,79.4707 C224.2844,84.1967 211.6294,78.8747 207.9994,68.2507 C207.3884,66.4667 206.6244,65.3337 204.7724,64.8377 C203.6394,64.5337 202.6044,63.8657 201.0214,63.1267 C201.0214,65.9767 201.2184,68.5457 200.9804,71.0737 C200.4834,76.3487 196.9174,79.7267 191.5534,79.8987 C187.8934,80.0157 184.1534,80.0927 180.5644,79.4937 C174.0824,78.4127 170.5444,73.9377 170.5244,67.3887 C170.4794,53.0117 170.4824,38.6357 170.5464,24.2587 C170.5534,22.6557 170.1724,21.7417 168.5124,21.5417 C167.0624,21.3667 166.6864,20.4507 166.8234,19.1077 C166.9764,17.6097 168.0734,17.9467 168.9604,17.9417 C172.8964,17.9197 176.8344,18.0057 180.7684,17.8967 C182.3974,17.8517 182.7774,18.4287 182.7714,19.9637 C182.7234,35.6707 182.7354,51.3767 182.7474,67.0837 C182.7504,72.4167 187.2434,75.2817 192.1374,73.1157 C193.8704,72.3487 194.8584,71.0497 194.8914,69.1567 C194.9454,66.1177 194.9694,63.0757 194.8804,60.0387 C194.8644,59.4897 194.3604,58.6377 193.8864,58.4687 C189.3414,56.8437 188.1004,53.5667 188.7964,49.0987 C189.0274,47.6137 188.8694,46.0627 188.8224,44.5447 C188.7894,43.4997 189.1744,43.0707 190.2604,43.0867 C193.3714,43.1327 196.4834,43.1567 199.5914,43.0767 C200.9214,43.0437 201.2114,43.6557 201.2034,44.7917 C201.1774,48.4647 201.2744,52.1397 201.1584,55.8097 C201.1094,57.3537 201.5614,58.3147 202.9844,58.9217 C204.1854,59.4337 205.3264,60.0867 206.6264,60.7427 C207.9704,50.7047 213.1144,44.1437 223.1144,42.2487 C229.1044,41.1137 234.5174,42.3377 237.9984,47.8847 C240.3244,46.4857 242.5814,45.0867 244.8814,43.7637 C245.6974,43.2947 246.6014,42.9577 247.4984,42.6527 C251.0744,41.4317 254.3194,41.4697 256.8924,44.8467 C257.3284,45.4187 258.5094,45.4257 259.3474,45.6937 C259.5494,44.8967 260.0664,44.0217 259.8904,43.3187 C259.4804,41.6827 259.5794,40.3017 260.9024,39.1777 C262.3094,37.9837 263.9454,37.8707 265.5344,38.6437 C266.9504,39.3317 268.2264,40.2987 269.5964,41.0877 C271.0344,41.9147 272.5474,42.4787 273.9454,41.0627 C275.3074,39.6797 275.2434,38.0347 274.2494,36.5367 C273.2784,35.0737 271.9784,33.8297 270.9954,32.3747 C270.5794,31.7587 270.6044,30.8477 270.4294,30.0707 C271.2264,29.9747 272.1884,29.5407 272.7934,29.8357 C280.2714,33.4717 281.9574,44.8627 275.9754,50.5827 C273.1854,53.2507 268.4024,53.6807 266.1334,50.7437 C265.2204,49.5617 263.8404,49.1807 262.3614,49.8827 C260.8774,50.5867 260.3004,51.7577 260.3124,53.3997 C260.3574,60.2397 260.3654,67.0797 260.3014,73.9197 C260.2904,75.2827 260.6364,75.9997 262.0494,76.3067 C262.7194,76.4517 263.6234,77.0537 263.8024,77.6377 C264.3564,79.4457 263.8224,79.9997 261.8784,80.0047 C257.8794,80.0157 253.8784,79.9497 249.8804,80.0377 C248.3414,80.0717 247.9344,79.4917 247.9444,78.0417 C247.9954,70.0627 247.9724,62.0817 247.9654,54.1027 C247.9624,50.4957 246.1304,49.3057 242.8464,50.8017 C241.8704,51.2467 240.9094,51.7667 240.0444,52.3937 C239.5934,52.7217 239.1344,53.3327 239.0744,53.8607 C238.3484,60.1737 234.4424,63.7857 228.7994,65.8027 C226.9164,66.4757 224.8534,66.6567 222.8674,67.0297 C222.0784,67.1777 221.2724,67.2387 220.4374,67.3437 M219.6674,62.2977 C223.9654,62.6977 228.7934,59.9927 230.9124,56.0887 C232.2224,53.6707 232.1224,51.4077 230.6464,50.1547 C229.2834,48.9957 226.5744,49.1637 224.6204,50.5467 C224.2604,50.8007 223.9314,51.1047 223.6194,51.4157 C220.5964,54.4357 219.8374,58.2467 219.6674,62.2977"></path>
<path d="M84.7948,69.4287 C82.1268,71.8457 79.8328,74.1097 77.3378,76.1257 C75.3798,77.7097 73.2708,79.1657 71.0558,80.3587 C68.0978,81.9517 65.9198,81.2827 63.9658,78.5947 C61.6408,75.3947 60.4298,75.2527 57.6058,77.8497 C52.7668,82.2987 45.1048,82.3157 39.2538,77.8907 C28.9228,70.0767 29.3068,52.0707 39.9628,44.6927 C45.4748,40.8757 52.2768,40.9387 57.7258,44.8557 C60.0838,46.5517 60.2958,46.4677 61.7468,43.9007 C61.9818,43.4857 62.7308,43.1467 63.2488,43.1367 C66.8018,43.0717 70.3568,43.0647 73.9088,43.1447 C74.4278,43.1567 75.3828,43.7697 75.3598,44.0397 C75.2908,44.8667 74.9218,46.3177 74.5298,46.3647 C71.5028,46.7267 71.7468,48.7697 71.7748,50.9177 C71.8438,56.2357 71.7888,61.5547 71.8018,66.8727 C71.8088,69.5777 73.5938,70.9017 75.8858,69.5327 C78.8578,67.7597 81.5668,65.5447 84.3398,63.4547 C84.6528,63.2197 84.7718,62.5677 84.7748,62.1067 C84.8078,57.9917 84.8148,53.8757 84.7848,49.7607 C84.7708,47.9487 84.1608,47.7007 82.3568,48.2857 C81.6598,48.5117 80.4338,48.4357 80.0618,47.9897 C79.6518,47.4987 79.6528,46.2697 79.9858,45.6257 C82.3338,41.0847 90.1518,40.5837 93.1458,44.7137 C93.2948,44.9187 93.4348,45.1297 93.5718,45.3427 C95.3958,48.1787 96.0798,48.2337 98.2348,45.4967 C100.1798,43.0287 102.5888,41.7957 105.7948,41.9377 C110.4948,42.1467 114.1638,45.9957 114.0798,50.8207 C113.9968,55.5527 110.0618,59.4297 105.4138,59.3597 C102.1248,59.3107 100.1588,56.2317 101.5048,53.2377 C102.3948,51.2587 102.1488,50.1157 100.7338,49.6577 C99.4188,49.2327 97.7108,50.2987 97.2758,51.8967 C97.0958,52.5567 97.0408,53.2687 97.0388,53.9577 C97.0218,60.5417 97.0738,67.1267 96.9948,73.7107 C96.9758,75.2597 97.4498,76.0887 98.9958,76.3207 C100.2038,76.5017 100.8498,77.0747 100.7568,78.4857 C100.6798,79.6547 100.2698,80.0277 99.1568,80.0187 C94.9048,79.9877 90.6528,79.9777 86.4008,80.0237 C85.1448,80.0377 84.7488,79.5437 84.7748,78.3307 C84.8378,75.4867 84.7948,72.6397 84.7948,69.4287 M59.5648,61.5327 C59.5648,60.0787 59.5678,58.6257 59.5638,57.1717 C59.5528,53.8687 58.1928,52.0097 55.0588,51.0007 C51.8168,49.9577 47.9468,51.2647 45.8148,54.2117 C43.6908,57.1457 43.2248,60.4647 43.8208,63.9577 C44.4958,67.9167 46.4318,70.8867 50.4728,72.1457 C54.4618,73.3887 60.2808,71.1217 59.5878,65.5127 C59.4268,64.2047 59.5648,62.8607 59.5648,61.5327"></path>
<path d="M167.4843,43.3935 C167.3273,43.9745 167.2463,44.5225 167.0363,45.0155 C166.0223,47.3995 164.9383,49.7545 163.9523,52.1495 C163.4383,53.3955 162.8273,53.5635 161.6433,52.8825 C159.1173,51.4285 156.3743,50.5015 153.4753,51.4235 C152.4143,51.7615 151.2193,52.6755 150.7573,53.6445 C150.1243,54.9725 151.0673,56.2335 152.2543,56.9945 C153.4733,57.7755 154.7953,58.4015 156.0973,59.0455 C157.7423,59.8575 159.4773,60.5095 161.0623,61.4215 C167.6933,65.2345 167.9283,73.9625 161.4033,78.0335 C159.7093,79.0895 157.5253,79.8445 155.5473,79.8905 C146.8593,80.0905 138.1593,80.1385 129.4713,79.9335 C121.9293,79.7545 117.7093,74.9645 117.6913,67.0055 C117.6603,52.8245 117.6503,38.6435 117.7243,24.4635 C117.7333,22.7145 117.3313,21.6675 115.5133,21.4665 C113.9433,21.2925 114.1103,20.1595 114.1263,19.0675 C114.1463,17.6015 115.2413,17.9505 116.0513,17.9445 C120.0493,17.9165 124.0483,17.9975 128.0443,17.8995 C129.6433,17.8615 130.0803,18.4005 130.0763,19.9625 C130.0263,36.2955 130.0393,52.6285 130.0603,68.9625 C130.0613,69.8275 130.1173,70.7615 130.4393,71.5425 C131.0453,73.0115 132.7073,73.5605 134.1023,72.9355 C135.4913,72.3125 136.1113,70.7525 135.6343,69.2905 C135.4403,68.6915 135.1713,67.6045 135.3853,67.4755 C136.2763,66.9345 137.3213,66.6095 138.3473,66.3705 C138.5373,66.3265 139.0253,67.0015 139.1723,67.4165 C140.5603,71.3355 144.5373,73.7875 148.6053,73.0785 C150.7063,72.7115 152.1223,71.4685 152.7333,69.3605 C153.3233,67.3245 152.6503,65.6415 151.0443,64.5075 C149.2983,63.2735 147.3573,62.3055 145.4613,61.2965 C142.3613,59.6495 139.9363,57.5375 139.4523,53.7845 C138.7383,48.2565 143.1173,43.1315 148.7113,43.1095 C154.7393,43.0865 160.7673,43.1245 166.7953,43.1435 C166.9123,43.1435 167.0293,43.2245 167.4843,43.3935"></path>
<path d="M191.8554,122.5058 C191.7984,122.9368 191.8124,123.1968 191.7264,123.4188 C191.2054,124.7618 190.9764,126.4848 189.9974,127.2768 C189.4824,127.6918 187.6424,126.4598 186.3954,125.9858 C181.5644,124.1518 176.6924,124.0838 171.9604,126.1438 C167.8724,127.9238 166.0894,131.5978 165.2404,135.6968 C164.0054,141.6478 164.0434,147.6578 165.2914,153.5908 C166.7034,160.3158 170.5114,163.2668 178.1614,163.4098 C180.8224,163.4598 183.5604,162.8668 186.1524,162.1608 C188.6994,161.4678 189.0734,160.6318 189.0844,157.9868 C189.0994,154.0638 189.0854,150.1398 189.0924,146.2158 C189.0934,145.7278 189.1514,145.2378 189.1794,144.8068 C189.4154,144.7038 189.5234,144.6198 189.6374,144.6118 C193.9574,144.3038 193.9584,144.3048 193.9584,148.6258 L193.9584,165.1448 L193.9584,167.2298 C191.8494,167.3588 189.9764,167.7648 188.5494,165.8598 C188.3024,165.5298 187.0164,165.6958 186.3694,165.9858 C181.5784,168.1248 176.6084,168.6848 171.5024,167.6468 C165.7844,166.4848 162.2674,162.7728 160.6744,157.3448 C158.3684,149.4828 158.1804,141.4818 160.2724,133.5598 C162.4964,125.1288 168.9714,120.3968 177.7244,120.2308 C182.5334,120.1398 187.1794,120.8118 191.8554,122.5058"></path>
<path d="M293.1308,178.5771 C288.2618,178.9491 288.2618,178.9491 288.2618,174.4671 L288.2618,137.0611 L288.2618,134.7501 C290.0668,134.6051 291.6798,134.1541 292.8288,135.9731 C293.0228,136.2791 294.1138,136.2001 294.7178,136.0341 C297.0738,135.3861 299.3598,134.2271 301.7448,133.9961 C308.3608,133.3531 313.2008,136.7041 315.1358,143.0271 C316.6088,147.8421 316.7158,152.7641 315.3888,157.6281 C312.8928,166.7801 305.0318,170.4761 296.2678,166.7191 C293.1308,165.3731 293.1308,165.3731 293.1308,168.8241 L293.1308,178.5771 Z M293.1318,150.9031 C293.1318,153.7471 293.0918,156.5931 293.1618,159.4341 C293.1778,160.0571 293.4018,160.8811 293.8378,161.2571 C298.2758,165.0801 307.5178,165.3731 310.1148,157.5521 C311.2978,153.9911 311.3268,150.3651 310.7348,146.6971 C309.4228,138.5801 300.7808,135.2261 294.2748,140.3741 C293.6848,140.8411 293.2178,141.8071 293.1828,142.5641 C293.0538,145.3391 293.1318,148.1231 293.1318,150.9031 L293.1318,150.9031 Z"></path>
<path d="M250.539,0.894 C251.522,1.096 251.976,1.129 252.383,1.283 C254.193,1.962 255.82,1.62 257.438,0.628 C259.516,-0.645 261.211,0.271 261.371,2.691 C261.43,3.574 261.185,4.528 261.447,5.33 C261.695,6.086 262.429,6.686 262.948,7.354 C263.499,6.708 264.313,6.139 264.536,5.395 C264.814,4.465 264.557,3.387 264.619,2.378 C264.739,0.43 266.458,-0.635 268.1,0.408 C270.03,1.635 271.884,1.865 274.048,1.185 C275.589,0.701 276.929,1.35 277.751,2.785 C278.578,4.231 278.394,5.712 277.219,6.782 C275.537,8.313 274.826,10.061 274.89,12.316 C274.944,14.248 273.241,15.129 271.416,14.236 C270.509,13.792 269.654,13.24 268.775,12.738 C267.781,12.17 266.755,12.271 266.425,13.347 C266.241,13.945 266.706,14.971 267.206,15.489 C267.838,16.144 268.821,16.453 269.623,16.959 C271.605,18.211 271.627,20.214 269.591,21.27 C267.833,22.183 266.749,23.47 266.332,25.416 C265.963,27.138 264.895,28.226 263.02,28.226 C261.09,28.225 259.996,27.194 259.588,25.339 C259.185,23.508 258.163,22.188 256.442,21.312 C254.31,20.226 254.309,18.212 256.363,16.928 C257.168,16.425 258.16,16.114 258.772,15.446 C259.261,14.914 259.304,13.974 259.544,13.214 C258.771,13.039 257.93,12.583 257.244,12.753 C256.299,12.988 255.493,13.738 254.59,14.19 C252.623,15.175 250.88,14.203 250.968,12.043 C251.055,9.904 250.355,8.279 248.76,6.866 C247.606,5.845 247.338,4.32 248.114,3.051 C248.706,2.084 249.867,1.466 250.539,0.894"></path>
<path d="M234.6034,133.8447 C243.1834,133.8517 248.2964,138.4547 249.3634,146.9627 C249.8914,151.1757 249.7294,155.2947 248.3104,159.3057 C246.3924,164.7247 242.3464,167.4617 236.7604,168.0217 C235.0064,168.1987 233.1844,168.2057 231.4484,167.9397 C225.1944,166.9797 221.1654,163.3577 220.1104,157.0977 C219.5004,153.4797 219.3364,149.6357 219.8404,146.0137 C220.9724,137.8787 226.1724,133.8377 234.6034,133.8447 M244.6524,151.5207 C244.4014,149.2847 244.3214,147.5077 243.9874,145.7807 C242.9954,140.6427 239.6894,137.8197 234.6844,137.6977 C229.7764,137.5767 226.3814,140.1787 225.1424,145.2317 C224.1304,149.3557 224.1824,153.5257 225.3854,157.6107 C226.6444,161.8887 229.9614,164.2257 234.4964,164.2167 C239.0084,164.2077 242.2414,162.0217 243.5084,157.7797 C244.1524,155.6257 244.3334,153.3337 244.6524,151.5207"></path>
<path d="M255.4814,134.7793 C260.0204,134.2133 260.0534,134.2593 260.0814,138.5003 C260.1234,145.0143 260.0594,151.5333 260.3154,158.0403 C260.4604,161.7133 262.1064,163.1333 265.7594,163.6863 C269.0054,164.1793 272.0514,163.6423 274.9194,162.0303 C276.0814,161.3773 276.5824,160.5223 276.5704,159.1273 C276.5044,151.7233 276.5394,144.3193 276.5394,136.9153 L276.5394,134.9803 C276.8384,134.8003 276.9394,134.6913 277.0484,134.6813 C281.4094,134.3023 281.4094,134.3033 281.4094,138.5923 L281.4094,164.9813 L281.4094,167.1643 C279.7094,167.3203 278.1054,167.9013 276.9534,166.0223 C276.7664,165.7173 275.5624,165.6923 275.0744,165.9673 C271.1134,168.2093 266.9224,168.6223 262.5664,167.6573 C258.5314,166.7643 255.6554,163.8303 255.5464,159.7303 C255.3284,151.4583 255.4814,143.1753 255.4814,134.7793"></path>
<path d="M217.4569,134.0654 L217.4569,138.3364 C216.3989,138.3364 215.4389,138.2074 214.5289,138.3644 C212.7979,138.6624 211.0529,138.9964 209.3919,139.5474 C207.3589,140.2224 206.3879,141.5134 206.4579,143.9434 C206.6589,150.9614 206.5289,157.9884 206.5289,165.0114 L206.5289,167.0564 C206.2169,167.1804 206.0519,167.3024 205.8849,167.3044 C200.9269,167.3624 201.7769,167.6864 201.7589,163.3984 C201.7199,154.5404 201.7469,145.6804 201.7469,136.8224 L201.7469,134.7144 C203.5059,134.5934 205.0549,134.2424 206.1609,135.9574 C206.3619,136.2694 207.5159,136.2844 208.0269,136.0314 C211.7489,134.1884 214.3859,133.5754 217.4569,134.0654"></path>
</g>
</svg>