<?xml version="1.0" encoding="UTF-8"?>
<svg width="500px" height="250px" viewBox="0 0 500 250" version="1.1" xmlns="http://www.w3.org/2000/svg" xmlns:xlink="http://www.w3.org/1999/xlink">
<g transform="translate(70, 52)">
<path d="M341.9901,63.9061 C341.8391,65.6681 341.9641,67.4521 341.9641,69.2271 C341.9641,70.9301 341.9681,72.6331 341.9631,74.3361 C341.9521,78.3351 339.5691,80.9181 335.5191,81.3281 C329.9971,81.8881 325.5731,78.3261 324.4071,72.1371 C323.6931,68.3491 324.0721,64.6361 326.2761,61.2971 C328.7321,57.5781 333.5801,55.8761 337.5011,57.4561 C339.8671,58.4081 342.3131,60.1271 341.9901,63.9061 M358.4861,48.4621 C354.2741,48.3731 350.0581,48.3791 345.8451,48.4541 C345.3671,48.4631 344.6851,48.9661 344.4641,49.4171 C343.1361,52.1221 342.5921,52.3961 340.2631,50.5221 C333.6571,45.2051 322.9161,45.9241 316.7111,53.1071 C310.5021,60.2941 309.2141,68.5571 312.1681,77.4431 C314.1471,83.3991 317.9651,87.9531 324.0191,90.0731 C329.5671,92.0161 334.9481,91.6641 339.7261,87.6781 C340.9231,86.6801 341.8881,87.2151 341.9191,88.8631 C341.9771,92.0611 342.0691,95.2801 341.7811,98.4561 C341.3581,103.1251 337.3171,106.5461 332.5821,106.5921 C327.4611,106.6421 323.4081,103.3771 322.8791,98.5631 C322.7051,96.9801 322.1151,96.6271 320.6091,96.5781 C318.7731,96.5171 317.9281,96.8971 317.4281,98.8941 C316.9131,100.9581 315.9231,103.1761 314.4661,104.6781 C311.8201,107.4041 308.9231,110.0541 305.6881,112.0121 C298.1881,116.5511 289.7011,117.8701 281.0811,118.2891 C268.5481,118.8991 256.3371,116.7801 244.3421,113.4261 C230.1431,109.4571 216.0951,104.9391 201.8361,101.2131 C180.9761,95.7641 159.8891,93.7661 138.5561,98.7651 C118.7831,103.3991 100.5651,111.2611 84.6911,124.0891 C82.7461,125.6611 82.7851,125.9301 85.0041,127.1361 C95.0811,132.6141 105.1521,138.1021 115.2421,143.5551 C119.7241,145.9761 118.3101,146.0701 121.7411,142.6831 C141.1541,123.5171 164.8311,116.9681 191.3721,119.8591 C203.4651,121.1751 215.4271,123.7311 227.4251,125.8511 C243.3141,128.6581 259.1841,131.4091 275.4431,129.4701 C284.5621,128.3821 293.4471,126.5141 301.7671,122.5221 C309.2901,118.9121 315.6461,113.9051 320.1411,106.6631 C321.2231,107.8401 322.0791,108.9971 323.1511,109.8981 C329.5941,115.3121 336.8821,116.4991 344.5241,113.1391 C352.0051,109.8501 355.8041,103.7541 355.8511,95.5721 C355.9281,82.6251 355.9121,69.6791 355.8351,56.7331 C355.8221,54.4351 355.8031,52.5501 358.7621,52.1191 C359.2411,52.0491 359.6481,50.4941 359.7771,49.5821 C359.8231,49.2581 358.9511,48.4711 358.4861,48.4621"></path>
<path d="M97.7206,98.3646 C98.7166,97.3586 99.3266,96.1726 98.1766,95.0056 C97.0906,93.9046 95.8316,94.2956 94.7226,95.1906 C94.5006,95.3696 94.2966,95.5696 94.0766,95.7506 C83.3346,104.5926 71.0966,107.9886 57.3376,105.6126 C37.5926,102.2026 21.9556,84.0006 22.2436,64.0696 C22.4546,49.5106 28.9336,37.9346 41.3296,30.0236 C52.2056,23.0826 66.6406,24.1786 75.7696,32.3696 C76.9216,33.4036 77.5706,32.9106 78.3406,31.8966 C85.8826,21.9786 93.4566,12.0846 101.0076,2.1726 C101.3666,1.7016 101.5976,1.1346 102.0806,0.2686 C101.0896,0.1736 100.5986,0.0856 100.1086,0.0856 C76.6806,0.0786 53.2536,0.0616 29.8266,0.1376 C28.7556,0.1416 27.4146,0.7306 26.6636,1.4976 C22.9286,5.3076 19.0286,9.0226 15.7726,13.2216 C2.6806,30.1046 -3.0724,49.0606 1.6166,70.2096 C9.6186,106.3106 49.7586,126.4716 83.8016,108.5566 C88.9456,105.8496 93.6246,102.4996 97.7206,98.3646"></path>
<path d="M251.5712,57.7445 C251.9232,57.3945 252.2942,57.0535 252.6972,56.7675 C254.8962,55.2145 257.9432,55.0265 259.4772,56.3275 C261.1372,57.7355 261.2512,60.2765 259.7752,62.9925 C257.3932,67.3765 251.9622,70.4145 247.1262,69.9655 C247.3172,65.4165 248.1712,61.1365 251.5712,57.7445 M189.5762,24.1935 C191.4442,24.4185 191.8732,25.4455 191.8652,27.2445 C191.7932,43.3905 191.7902,59.5365 191.8402,75.6825 C191.8632,83.0375 195.8422,88.0635 203.1342,89.2775 C207.1722,89.9495 211.3802,89.8635 215.4982,89.7325 C221.5322,89.5395 225.5442,85.7465 226.1022,79.8225 C226.3712,76.9825 226.1492,74.0975 226.1492,70.8965 C227.9302,71.7265 229.0942,72.4775 230.3692,72.8185 C232.4522,73.3755 233.3122,74.6475 233.9982,76.6505 C238.0842,88.5835 252.3192,94.5595 263.8132,89.2525 C267.8002,87.4105 271.0592,84.6845 272.7802,80.5335 C273.0392,79.9095 272.4822,78.9505 272.3032,78.1465 C271.5562,78.3885 270.7872,78.5795 270.0732,78.8935 C269.7802,79.0225 269.6182,79.4285 269.3752,79.6875 C263.1892,86.2915 250.8962,84.0635 247.9922,75.6335 C248.9312,75.5155 249.8382,75.4465 250.7252,75.2795 C252.9612,74.8605 255.2812,74.6585 257.4002,73.9025 C263.7472,71.6375 268.1422,67.5795 268.9582,60.4895 C269.0272,59.8965 269.5422,59.2115 270.0502,58.8435 C271.0222,58.1385 272.1032,57.5545 273.2022,57.0545 C276.8972,55.3745 278.9582,56.7115 278.9622,60.7615 C278.9692,69.7235 278.9942,78.6855 278.9372,87.6475 C278.9262,89.2755 279.3842,89.9265 281.1162,89.8895 C285.6142,89.7905 290.1142,89.8645 294.6142,89.8515 C296.8002,89.8465 297.4012,89.2235 296.7772,87.1935 C296.5762,86.5385 295.5602,85.8625 294.8062,85.6985 C293.2162,85.3535 292.8262,84.5485 292.8402,83.0175 C292.9112,75.3365 292.9022,67.6535 292.8512,59.9725 C292.8392,58.1285 293.4882,56.8135 295.1562,56.0225 C296.8212,55.2345 298.3732,55.6615 299.4002,56.9895 C301.9532,60.2875 307.3332,59.8055 310.4722,56.8085 C317.2012,50.3845 315.3052,37.5925 306.8932,33.5085 C306.2122,33.1775 305.1302,33.6645 304.2332,33.7715 C304.4302,34.6445 304.4022,35.6685 304.8692,36.3595 C305.9752,37.9945 307.4382,39.3905 308.5302,41.0335 C309.6492,42.7165 309.7202,44.5635 308.1872,46.1165 C306.6172,47.7075 304.9132,47.0745 303.2962,46.1445 C301.7552,45.2595 300.3192,44.1725 298.7262,43.3995 C296.9382,42.5325 295.0982,42.6595 293.5142,44.0005 C292.0262,45.2615 291.9162,46.8135 292.3772,48.6505 C292.5752,49.4395 291.9932,50.4225 291.7652,51.3185 C290.8242,51.0165 289.4942,51.0095 289.0042,50.3675 C286.1092,46.5745 282.4582,46.5315 278.4342,47.9025 C277.4272,48.2445 276.4102,48.6235 275.4922,49.1505 C272.9032,50.6365 270.3642,52.2065 267.7482,53.7785 C263.8332,47.5495 257.7422,46.1735 251.0032,47.4485 C239.7532,49.5775 233.9672,56.9465 232.4552,68.2195 C230.9922,67.4815 229.7082,66.7495 228.3572,66.1745 C226.7572,65.4925 226.2482,64.4125 226.3022,62.6795 C226.4342,58.5575 226.3252,54.4295 226.3532,50.3045 C226.3632,49.0285 226.0372,48.3415 224.5412,48.3795 C221.0442,48.4685 217.5422,48.4415 214.0432,48.3905 C212.8222,48.3715 212.3872,48.8535 212.4252,50.0275 C212.4772,51.7325 212.6562,53.4745 212.3962,55.1415 C211.6132,60.1605 213.0082,63.8395 218.1222,65.6645 C218.6552,65.8545 219.2222,66.8115 219.2402,67.4295 C219.3412,70.8395 219.3122,74.2555 219.2532,77.6685 C219.2152,79.7945 218.1032,81.2545 216.1542,82.1155 C210.6482,84.5485 205.5942,81.3295 205.5902,75.3405 C205.5772,57.7005 205.5642,40.0605 205.6182,22.4215 C205.6242,20.6975 205.1962,20.0495 203.3642,20.0995 C198.9392,20.2215 194.5082,20.1255 190.0812,20.1495 C189.0822,20.1555 187.8482,19.7775 187.6752,21.4595 C187.5212,22.9685 187.9452,23.9975 189.5762,24.1935"></path>
<path d="M56.7817,81.0257 C52.2367,79.6117 50.0577,76.2757 49.2987,71.8307 C48.6287,67.9057 49.1527,64.1797 51.5417,60.8847 C53.9397,57.5737 58.2937,56.1067 61.9417,57.2787 C65.4677,58.4107 66.9967,60.4997 67.0087,64.2087 C67.0137,65.8407 67.0097,67.4737 67.0097,69.1067 C67.0097,70.5977 66.8547,72.1077 67.0367,73.5757 C67.8157,79.8757 61.2697,82.4217 56.7817,81.0257 M89.9847,51.2407 C89.6097,51.9647 89.6087,53.3447 90.0697,53.8967 C90.4887,54.3977 91.8667,54.4837 92.6527,54.2297 C94.6807,53.5727 95.3667,53.8507 95.3827,55.8847 C95.4167,60.5067 95.4087,65.1297 95.3717,69.7507 C95.3677,70.2687 95.2357,71.0007 94.8827,71.2657 C91.7627,73.6117 88.7147,76.0997 85.3717,78.0907 C82.7937,79.6287 80.7847,78.1417 80.7767,75.1027 C80.7617,69.1307 80.8247,63.1567 80.7467,57.1857 C80.7157,54.7727 80.4407,52.4777 83.8457,52.0707 C84.2867,52.0187 84.7017,50.3887 84.7807,49.4607 C84.8057,49.1567 83.7307,48.4677 83.1477,48.4547 C79.1517,48.3647 75.1517,48.3727 71.1547,48.4467 C70.5727,48.4577 69.7297,48.8377 69.4657,49.3047 C67.8327,52.1877 67.5937,52.2807 64.9417,50.3777 C58.8117,45.9777 51.1597,45.9067 44.9577,50.1927 C32.9707,58.4797 32.5377,78.7017 44.1617,87.4777 C50.7427,92.4477 59.3627,92.4277 64.8067,87.4317 C67.9837,84.5147 69.3467,84.6737 71.9617,88.2677 C74.1607,91.2877 76.6107,92.0387 79.9377,90.2497 C82.4297,88.9097 84.8027,87.2737 87.0057,85.4957 C89.8117,83.2307 92.3927,80.6887 95.3947,77.9737 C95.3947,81.5817 95.4427,84.7777 95.3717,87.9717 C95.3417,89.3347 95.7877,89.8887 97.2007,89.8737 C101.9847,89.8217 106.7687,89.8327 111.5517,89.8687 C112.8027,89.8777 113.2647,89.4587 113.3507,88.1457 C113.4557,86.5617 112.7287,85.9177 111.3707,85.7137 C109.6307,85.4537 109.0977,84.5217 109.1187,82.7827 C109.2077,75.3887 109.1487,67.9937 109.1687,60.5987 C109.1707,59.8247 109.2337,59.0257 109.4357,58.2837 C109.9247,56.4897 111.8467,55.2927 113.3257,55.7707 C114.9177,56.2847 115.1947,57.5677 114.1927,59.7897 C112.6777,63.1517 114.8897,66.6107 118.5907,66.6667 C123.8197,66.7447 128.2457,62.3897 128.3397,57.0757 C128.4347,51.6567 124.3067,47.3337 119.0197,47.0997 C115.4127,46.9407 112.7017,48.3247 110.5147,51.0967 C108.0907,54.1707 107.3207,54.1087 105.2687,50.9237 C105.1147,50.6847 104.9567,50.4477 104.7887,50.2177 C101.4217,45.5787 92.6257,46.1417 89.9847,51.2407"></path>
<path d="M129.953,24.1092 C131.998,24.3352 132.45,25.5102 132.44,27.4752 C132.356,43.4012 132.368,59.3272 132.403,75.2532 C132.422,84.1922 137.17,89.5712 145.655,89.7722 C155.43,90.0022 165.216,89.9472 174.991,89.7232 C177.216,89.6722 179.672,88.8242 181.579,87.6372 C188.92,83.0672 188.654,73.2632 181.195,68.9822 C179.411,67.9572 177.46,67.2252 175.609,66.3132 C174.144,65.5902 172.657,64.8862 171.286,64.0092 C169.951,63.1542 168.89,61.7392 169.602,60.2482 C170.121,59.1582 171.467,58.1322 172.66,57.7532 C175.921,56.7182 179.007,57.7582 181.849,59.3912 C183.181,60.1562 183.868,59.9682 184.446,58.5682 C185.556,55.8782 186.774,53.2342 187.915,50.5562 C188.151,50.0022 188.243,49.3872 188.42,48.7342 C187.907,48.5442 187.776,48.4532 187.644,48.4532 C180.863,48.4332 174.082,48.3902 167.3,48.4162 C161.007,48.4402 156.081,54.1962 156.884,60.4042 C157.428,64.6192 160.157,66.9912 163.643,68.8412 C165.777,69.9732 167.961,71.0622 169.925,72.4472 C171.731,73.7212 172.489,75.6102 171.825,77.8972 C171.138,80.2652 169.544,81.6612 167.181,82.0732 C162.604,82.8692 158.131,80.1152 156.569,75.7142 C156.404,75.2482 155.854,74.4902 155.641,74.5392 C154.486,74.8082 153.31,75.1732 152.309,75.7792 C152.069,75.9262 152.37,77.1472 152.589,77.8182 C153.125,79.4612 152.428,81.2132 150.865,81.9132 C149.295,82.6152 147.425,81.9982 146.745,80.3492 C146.382,79.4712 146.319,78.4222 146.318,77.4502 C146.294,59.1062 146.279,40.7632 146.335,22.4202 C146.341,20.6662 145.849,20.0602 144.05,20.1032 C139.555,20.2122 135.056,20.1222 130.558,20.1542 C129.647,20.1602 128.415,19.7692 128.391,21.4142 C128.374,22.6412 128.185,23.9142 129.953,24.1092"></path>
<path d="M282.3378,13.5257 C282.2398,15.9517 284.1998,17.0437 286.4128,15.9377 C287.4298,15.4287 288.3358,14.5867 289.3998,14.3237 C290.1708,14.1317 291.1168,14.6437 291.9858,14.8407 C291.7168,15.6937 291.6688,16.7497 291.1188,17.3477 C290.4308,18.0977 289.3148,18.4477 288.4088,19.0117 C286.0978,20.4547 286.0978,22.7147 288.4978,23.9357 C290.4338,24.9197 291.5838,26.4007 292.0368,28.4587 C292.4958,30.5417 293.7258,31.6987 295.8988,31.6997 C298.0078,31.6997 299.2088,30.4787 299.6228,28.5457 C300.0928,26.3587 301.3128,24.9137 303.2898,23.8887 C305.5808,22.7017 305.5558,20.4527 303.3248,19.0467 C302.4238,18.4787 301.3178,18.1317 300.6068,17.3957 C300.0438,16.8137 299.5218,15.6617 299.7278,14.9897 C300.0988,13.7817 301.2538,13.6687 302.3718,14.3057 C303.3608,14.8697 304.3218,15.4907 305.3428,15.9887 C307.3968,16.9917 309.3128,16.0027 309.2508,13.8327 C309.1798,11.2997 309.9798,9.3367 311.8708,7.6177 C313.1928,6.4157 313.3998,4.7517 312.4698,3.1287 C311.5448,1.5157 310.0368,0.7877 308.3048,1.3317 C305.8688,2.0947 303.7828,1.8367 301.6118,0.4587 C299.7648,-0.7133 297.8318,0.4827 297.6958,2.6717 C297.6268,3.8037 297.9158,5.0147 297.6038,6.0587 C297.3528,6.8957 296.4368,7.5337 295.8168,8.2597 C295.2318,7.5087 294.4078,6.8357 294.1278,5.9857 C293.8328,5.0857 294.1088,4.0137 294.0428,3.0237 C293.8618,0.3047 291.9548,-0.7243 289.6178,0.7057 C287.7978,1.8197 285.9678,2.2047 283.9308,1.4407 C283.4728,1.2687 282.9628,1.2307 281.8568,1.0047 C281.1008,1.6467 279.7938,2.3417 279.1288,3.4267 C278.2548,4.8517 278.5568,6.5647 279.8548,7.7117 C281.6508,9.2977 282.4358,11.1237 282.3378,13.5257"></path>
</g>
</svg>