<?xml version="1.0" encoding="UTF-8"?>
<svg xmlns="http://www.w3.org/2000/svg" width="285" height="109" viewBox="0 0 285 109" xmlns:xlink="http://www.w3.org/1999/xlink">
<g transform="translate(0, 25)">
<path fill="#000" d="M33.7266667 19.7206087C35.2419048 20.560913 37.1585714 19.7110435 37.917619 18.250913 38.6504762 16.8333478 38.2980952 14.8088696 36.8057143 14.0307391 35.28 13.2358696 33.3990476 14.1340435 32.6342857 15.5683478 31.8938095 16.9816087 32.257619 18.9314783 33.7266667 19.7206087M12.8761905 23.6571739C14.0452381 24.233 15.23 23.1597826 15.7095238 22.1659565 16.2371429 21.0716957 16.3952381 19.2217826 15.1047619 18.577087 13.9033333 17.9763913 12.7304762 19.0716087 12.2671429 20.1041739 11.7880952 21.1721304 11.6033333 23.0387826 12.8761905 23.6571739M8.81238095 29.9276522C9.8747619 30.8396957 11.0861905 29.5971739 11.4752381 28.6157826 11.8842857 27.5836957 11.9733333 25.9996957 11.0785714 25.180913 10.0395238 24.2296522 8.76285714 25.4042609 8.35619048 26.4062174 7.92904762 27.4641304 7.86571429 29.115087 8.81238095 29.9276522M18.657619 27.4631739C18.4195238 26.728087 17.9304762 26.0580435 17.1947619 25.7706087 16.4114286 25.4750435 15.5566667 25.7132174 14.9252381 26.2321304 13.6409524 27.2881304 13.2161905 29.3044783 13.7647619 30.8454348 14.0157143 31.549913 14.5128571 32.1998696 15.2361905 32.4528696 15.9942857 32.7192609 16.8219048 32.4892174 17.4347619 31.9951739 18.71 30.966913 19.1471429 28.9931304 18.657619 27.4631739M18.6390476 46.9853043C18.1980952 45.5596087 16.7642857 44.0234348 15.1404762 44.694913 13.5871429 45.3381739 13.3152381 47.4200435 13.6947619 48.8586522 14.0909524 50.359913 15.5919048 52.0644348 17.2942857 51.3016087 18.8752381 50.5923478 19.0766667 48.4526087 18.6390476 46.9853043M11.9628571 49.8003478C11.7404762 48.7682609 10.852381 47.202913 9.5652381 47.5405652 8.30047619 47.8734348 8.18047619 49.6951304 8.42857143 50.7296087 8.66666667 51.7234348 9.54142857 53.1108696 10.7457143 52.8822609 12.0604762 52.6335652 12.1761905 50.8372174 11.9628571 49.8003478M38.9642857 59.574087C38.7647619 57.8824783 37.2157143 56.5481304 35.5142857 56.6825217 33.7790476 56.8183478 32.6909524 58.509 32.947619 60.1752609 33.1957143 61.7860435 34.6804762 63.0893043 36.3157143 63.041 38.0647619 62.9893478 39.1861905 61.2283913 38.9642857 59.574087M16.297619 55.6695652C15.8580952 54.5973043 14.6557143 53.362913 13.3895238 53.9133913 12.1361905 54.4576522 12.1895238 56.2023478 12.6057143 57.2726957 13.0233333 58.3597826 14.1528571 59.5329565 15.4252381 59.081 16.787619 58.5979565 16.7480952 56.7733913 16.297619 55.6695652"/>
<path fill="#000" d="M25.3271429 17.2393913C26.4961905 18.4465217 28.3357143 17.8926957 29.3066667 16.7353043 30.23 15.6348261 30.4809524 13.7949565 29.2871429 12.7772174 28.1614286 11.8168696 26.5509524 12.2664348 25.6033333 13.2454348 24.5904762 14.2866087 24.2214286 16.1154783 25.3271429 17.2393913M19.147619 19.4145217C20.497619 19.6785217 21.7009524 18.5402609 22.1647619 17.3651739 22.6414286 16.1594783 22.39 14.4487391 20.9242857 14.1101304 19.5019048 13.7806087 18.2195238 15.0063913 17.7809524 16.2623043 17.357619 17.4756522 17.7028571 19.1313913 19.147619 19.4145217M21.7014286 21.9588696C20.627619 23.3128261 20.4285714 25.4444348 21.5595238 26.8304348 22.0971429 27.489 22.91 27.8945652 23.7661905 27.8328696 24.617619 27.7721304 25.3847619 27.303913 25.9409524 26.6702174 26.9457143 25.5243043 27.3633333 23.7958696 26.75 22.3543913 26.4266667 21.5877391 25.7947619 20.9597826 24.9947619 20.7144348 24.13 20.4461304 23.2157143 20.6776087 22.492381 21.195087 22.1933333 21.4093478 21.9280952 21.6695217 21.7014286 21.9588696M6.63571429 36.705087C6.85095238 37.1718696 7.23380952 37.6228696 7.76952381 37.6941304 8.38904762 37.7921739 8.90666667 37.2981304 9.20190476 36.8074348 9.80333333 35.8083478 9.87285714 34.4017826 9.38142857 33.3443478 9.14857143 32.844087 8.73190476 32.3691739 8.14619048 32.3347391 7.53238095 32.2993478 7.0547619 32.7790435 6.77285714 33.2783478 6.20761905 34.2788696 6.14904762 35.662 6.63571429 36.705087M15.0519048 36.1407391C14.6247619 35.5476957 13.9942857 35.1282609 13.2485714 35.1282609 12.5561905 35.1282609 11.95 35.6074783 11.5738095 36.158913 10.6519048 37.5095217 10.642381 39.491913 11.5157143 40.8683478 11.9009524 41.4671304 12.4985714 41.9530435 13.232381 41.9817391 13.9780952 42.0123478 14.6309524 41.559913 15.0519048 40.9711739 16.0414286 39.6033478 16.0390476 37.5090435 15.0519048 36.1407391M9.5347619 41.5073043C9.31238095 40.9353043 8.90571429 40.305913 8.28 40.1332609 7.73190476 39.9821304 7.21095238 40.2901304 6.9047619 40.7396957 6.28619048 41.6483913 6.25285714 42.9946957 6.62714286 44.0100435 6.83857143 44.5834783 7.22333333 45.208087 7.83333333 45.4123043 8.45857143 45.6213043 9.04285714 45.2267391 9.35761905 44.7006522 9.90714286 43.7828696 9.92142857 42.493 9.5347619 41.5073043M26.75 54.7613478C27.4309524 53.1558261 26.8295238 51.1323043 25.5204762 50.0303913 24.8495238 49.4660435 23.9604762 49.1432174 23.0852381 49.3273478 22.2638095 49.5 21.5857143 50.0873043 21.2042857 50.8262174 20.3938095 52.3944348 20.8490476 54.4155652 22.11 55.603087 22.737619 56.1951739 23.5809524 56.5792174 24.4538095 56.505087 25.3071429 56.4323913 26.0680952 55.9263913 26.5204762 55.2037391 26.6085714 55.0626522 26.6852381 54.9143913 26.75 54.7613478M30.8033333 62.0921304C30.5885714 60.5344348 29.2366667 59.1704348 27.6309524 59.1589565 26.8990476 59.1685217 26.2038095 59.5348696 25.7766667 60.1326957 25.3695238 60.7008696 25.297619 61.3412609 25.347619 62.016087 25.4585714 63.526913 27.0066667 64.8961739 28.4909524 64.8961739 29.2561905 64.8995217 29.9895238 64.5126087 30.4161905 63.8741304 30.7795238 63.3303478 30.8447619 62.7263043 30.8033333 62.0921304M22.4071429 59.279C21.6166667 58.1402609 19.8952381 57.3076087 18.757619 58.5013478 17.7319048 59.5783913 18.2014286 61.358 19.092381 62.348 19.9057143 63.2523913 21.3704762 63.7641304 22.3814286 62.8367826 23.3866667 61.9142174 23.1052381 60.2843043 22.4071429 59.279"/>
<path fill="#000" d="M45.8895238 4.60947826C46.9028571 5.0136087 48.1561905 4.71134783 48.7933333 3.79786957 49.5119048 2.76913043 49.0942857 1.37691304 47.9552381.882869565 46.9157143.432347826 45.5752381.769521739 44.9109524 1.70308696 44.1452381 2.77869565 44.7309524 4.14556522 45.8895238 4.60947826M6.80952381 15.4449565C7.53333333 15.4822609 8.08095238 14.6596522 8.32238095 14.0752174 8.55761905 13.5070435 8.74761905 12.2597391 7.84952381 12.1506957 7.08095238 12.0574348 6.47666667 12.9536957 6.25571429 13.575913 6.05333333 14.1364348 5.91904762 15.3942609 6.80952381 15.4449565M53.0680952 9.90813043C54.1247619 10.6422609 55.6195238 10.4528696 56.3085714 9.317 56.9895238 8.19404348 56.5714286 6.65404348 55.4628571 5.98113043 54.4633333 5.37469565 53.1085714 5.58273913 52.3947619 6.5316087 51.577619 7.61343478 52.0009524 9.1716087 53.0680952 9.90813043M3.5147619 21.1305217C4.16571429 21.4318261 4.72047619 20.4982609 4.90952381 20.0161739 5.14714286 19.4298261 5.39428571 18.2207826 4.67380952 17.8553913 3.96619048 17.4962174 3.3847619 18.5326087 3.20285714 19.0563043 3.00619048 19.6196957 2.81428571 20.8158261 3.5147619 21.1305217M57.117619 67.8092609C56.8442857 66.5466522 55.5919048 65.7976957 54.3580952 66.1640435 53.1471429 66.5236957 52.2909524 67.8183478 52.5566667 69.0809565 52.8119048 70.2895217 54.0266667 71.036087 55.2171429 70.7902609 56.5452381 70.5157391 57.4 69.1292609 57.117619 67.8092609M5.30952381 58.2005217C5.18 57.5883478 4.7052381 56.4314348 3.92 56.4864348 3.12761905 56.5423913 3.19142857 57.7394783 3.31809524 58.2756087 3.46285714 58.8858696 3.87619048 59.8251739 4.60904762 59.8686957 5.42857143 59.9002609 5.42904762 58.7505217 5.30952381 58.2005217M49.847619 73.6722609C49.5628571 72.4971739 48.2952381 71.850087 47.1585714 72.039 45.9552381 72.238913 44.942381 73.4116087 45.3838095 74.6627391 45.7528571 75.7096522 46.9309524 76.274 47.9885714 76.153 49.1814286 76.0166957 50.1828571 74.9123913 49.847619 73.6722609M8.71952381 63.5532174C8.46952381 62.909 7.92047619 62.1208261 7.15666667 62.1165217 6.25714286 62.1648261 6.40238095 63.4346087 6.61190476 63.9903478 6.84285714 64.6020435 7.40190476 65.4136522 8.13952381 65.3997826 9.08380952 65.3997826 8.9447619 64.1247391 8.71952381 63.5532174"/>
<path fill="#000" d="M26.6290476 9.47626087C27.7704762 9.47626087 28.8966667 8.61443478 29.2457143 7.53356522 29.3957143 7.07013043 29.4028571 6.54308696 29.1557143 6.11026087 28.7995238 5.48708696 28.052381 5.27473913 27.3780952 5.36752174 26.3195238 5.53156522 25.3061905 6.281 25.0104762 7.3456087 24.702381 8.45517391 25.4680952 9.47626087 26.6290476 9.47626087M19.4795238 11.4227826C20.4442857 11.5213043 21.3752381 10.8077391 21.8309524 10.0085652 22.3214286 9.14913043 22.3385714 7.74830435 21.1366667 7.49291304 20.1185714 7.27673913 19.0557143 8.008 18.5633333 8.855 18.0104762 9.80530435 18.1528571 11.2836087 19.4795238 11.4227826M3.07571429 37.169C3.29047619 37.420087 3.62666667 37.5501739 3.94047619 37.4138696 4.41571429 37.2072609 4.64952381 36.63 4.7652381 36.1608261 4.9652381 35.3511304 4.94238095 34.254 4.37714286 33.5963913 4.11809524 33.2955652 3.72571429 33.185087 3.37952381 33.4065217 2.95333333 33.6786522 2.76047619 34.2492174 2.66904762 34.7222174 2.51904762 35.4998696 2.53380952 36.5453478 3.07571429 37.169M4.76285714 41.3384783C4.62285714 40.9128261 4.3452381 40.3771739 3.86428571 40.2762609 3.47904762 40.195913 3.16238095 40.4536957 2.97714286 40.7746087 2.55904762 41.4986957 2.56952381 42.537 2.80952381 43.3242174 2.94095238 43.7637391 3.21142857 44.3352609 3.71095238 44.4356957 4.1 44.5131739 4.42904762 44.231 4.61285714 43.9105652 5.0352381 43.1721304 5.0252381 42.1352609 4.76285714 41.3384783M30.027619 70.1163913C29.9342857 68.924087 28.842381 67.934087 27.7142857 67.728913 26.6242857 67.5299565 25.4509524 68.2172174 25.582381 69.444913 25.7047619 70.5913043 26.6809524 71.5813043 27.8114286 71.7826522 28.3233333 71.8730435 28.8442857 71.8744783 29.3071429 71.5961304 29.842381 71.2747391 30.0495238 70.7180435 30.027619 70.1163913M22.2871429 67.1564348C21.7333333 66.3653913 20.6285714 65.6676087 19.6395238 66.064087 18.4780952 66.529913 18.6942857 67.9933913 19.3080952 68.806913 19.8747619 69.5592174 20.9785714 70.2005652 21.9347619 69.8303913 23.0761905 69.388 22.8466667 67.9594348 22.2871429 67.1564348"/>
<path fill="#000" d="M19.8747619,5.09826087 C20.57,5.08821739 21.2709524,4.67308696 21.6909524,4.13313043 C22.2004762,3.487 22.2128571,2.46304348 21.1738095,2.44534783 C20.4695238,2.4333913 19.7147619,2.84708696 19.2709524,3.377 C19.0166667,3.68069565 18.8719048,4.02073913 18.91,4.41769565 C18.9557143,4.88591304 19.4671429,5.09826087 19.8747619,5.09826087" mask="url(#d)"/>
<path fill="#000" d="M0.277619048,37.1025217 C0.402380952,37.2971739 0.626666667,37.4267826 0.85,37.3167826 C1.17238095,37.1570435 1.29571429,36.6974348 1.35952381,36.3736522 C1.47904762,35.773913 1.48047619,35.0450435 1.20428571,34.4907391 C1.08238095,34.2463478 0.82047619,34.0105652 0.54047619,34.1674348 C0.226666667,34.3443913 0.125714286,34.8078261 0.069047619,35.1335217 C-0.0366666667,35.7456957 -0.059047619,36.5606522 0.277619048,37.1025217" mask="url(#f)"/>
<path fill="#000" d="M1.46857143,41.8487826 C1.44047619,41.4102174 1.30952381,40.184913 0.626190476,40.3073478 C0.0214285714,40.4312174 0.04,41.537913 0.0552380952,41.9989565 C0.0680952381,42.3786957 0.17952381,43.6446522 0.797619048,43.5485217 C1.4552381,43.4461739 1.4947619,42.3586087 1.46857143,41.8487826" mask="url(#h)"/>
<path fill="#000" d="M29.2109524,75.9320435 C29.0347619,75.040087 28.0780952,74.5053913 27.2733333,74.3131304 C26.5314286,74.1356957 25.492381,74.5082609 25.7114286,75.438 C25.922381,76.283087 26.8385714,76.7364783 27.6047619,76.9383043 C28.3628571,77.1377391 29.32,76.8651304 29.2109524,75.9320435" mask="url(#j)"/>
<path fill="#000" d="M22.2190476,73.2131304 C21.7533333,72.6425652 20.942381,72.1748261 20.1828571,72.2905652 C19.1838095,72.4426522 19.3261905,73.4871739 19.8609524,74.063 C20.3261905,74.5632609 21.0895238,74.9621304 21.7885714,74.9138261 C22.7957143,74.8430435 22.717619,73.8224348 22.2190476,73.2131304" mask="url(#l)"/>
<path fill="#000" d="M26.2514286,2.95134783 C27.027619,2.95134783 27.8366667,2.51947826 28.2990476,1.903 C28.5285714,1.59643478 28.7047619,1.17365217 28.5542857,0.792956522 C28.3804762,0.353913043 27.8690476,0.224304348 27.4428571,0.242478261 C26.7052381,0.274043478 25.9180952,0.641826087 25.4442857,1.20904348 C25.2147619,1.48356522 25.0385714,1.85517391 25.1180952,2.22152174 C25.2290476,2.73756522 25.7761905,2.95134783 26.2514286,2.95134783" mask="url(#n)"/>
<path fill="#000" d="M39.9966667 11.8498696C41.1642857 12.4352609 42.6504762 12.0555217 43.3785714 10.9612609 44.1571429 9.79047826 43.8052381 8.18113043 42.5980952 7.45752174 41.3547619 6.71334783 39.637619 7.13469565 38.9157143 8.404 38.2128571 9.64030435 38.7419048 11.2228696 39.9966667 11.8498696M9.69142857 19.1376087C10.6847619 19.2366087 11.4257143 18.0997826 11.6980952 17.2838696 11.9404762 16.5588261 12.0357143 15.1632609 11.0266667 14.9666957 10.0290476 14.7725217 9.23857143 15.904087 8.94428571 16.7104348 8.67285714 17.4636957 8.56095238 19.0366957 9.69142857 19.1376087M46.892381 17.587087C48.067619 18.458 49.81 18.313087 50.6609524 17.061 51.5209524 15.7955217 51.1447619 14.0039565 49.9485714 13.0947826 48.7338095 12.1722174 46.9257143 12.3850435 46.0890476 13.7122174 45.2847619 14.9886957 45.7128571 16.707087 46.892381 17.587087M5.7847619 25.0331304C6.56380952 25.6505652 7.42190476 24.6074783 7.71857143 23.9642174 8.07190476 23.1985217 8.32761905 21.9215652 7.64428571 21.2534348 6.27238095 19.911913 4.38285714 23.9073043 5.7847619 25.0331304M51.6119048 60.3058261C51.272381 58.7242174 49.6319048 57.8590435 48.1342857 58.4343913 46.7609524 58.961913 45.9261905 60.5186522 46.2914286 61.9586957 46.6704762 63.4527826 48.2447619 64.2801739 49.687619 63.7775217 51.0771429 63.2930435 51.9133333 61.7406087 51.6119048 60.3058261M8.24142857 54.4973478C8.06571429 53.7043913 7.5247619 52.5938696 6.61285714 52.4896087 5.5147619 52.3638261 5.46666667 53.9373043 5.61428571 54.6484783 5.78619048 55.4447826 6.35285714 56.6882609 7.32238095 56.6882609 8.37238095 56.6882609 8.40904762 55.2233478 8.24142857 54.4973478M44.4442857 66.5571739C44.102381 65.2400435 42.752381 64.4126522 41.4266667 64.6517826 40.0785714 64.8956957 39.0795238 66.1908261 39.3114286 67.5725217 39.5566667 69.0364783 41.0561905 69.9423043 42.4690476 69.6529565 43.8514286 69.3693478 44.82 67.9551304 44.4442857 66.5571739M12.0642857 60.1733478C11.7661905 59.3956957 11.0266667 58.3545217 10.0757143 58.452087 8.93285714 58.565913 9.05714286 60.1446522 9.34285714 60.9041304 9.6352381 61.6817826 10.3566667 62.687087 11.2919048 62.6397391 12.4909524 62.5943043 12.3652381 60.9438261 12.0642857 60.1733478"/>
<path fill="#000" d="M233.94619 53.2022174C227.601429 53.2022174 222.755714 50.7989565 222.755714 41.6603478L222.755714 24.6031739C222.755714 24.1612609 223.114286 23.8422609 223.552381 23.8422609L228.480952 23.8422609C228.918571 23.8422609 229.27619 24.1612609 229.27619 24.6031739L229.27619 41.6603478C229.27619 45.749 230.353333 47.7734783 233.94619 47.7734783 237.538095 47.7734783 238.654286 45.749 238.654286 41.6603478L238.654286 24.6031739C238.654286 24.1612609 239.014286 23.8422609 239.452857 23.8422609L244.339524 23.8422609C244.779048 23.8422609 245.177619 24.1612609 245.177619 24.6031739L245.177619 41.6603478C245.177619 50.7989565 240.292381 53.2022174 233.94619 53.2022174M269.766667 24.8446957L261.17381 37.9165217 269.807143 52.0013043C269.925714 52.1624783 269.96619 52.3217391 269.96619 52.4413043 269.96619 52.6818696 269.766667 52.8435217 269.407143 52.8435217L262.847143 52.8435217C262.36619 52.8435217 262.16619 52.6034348 261.965714 52.2806087L254.168095 39.6616957 254.168095 52.0419565C254.168095 52.4819565 253.808095 52.8435217 253.369048 52.8435217L248.442381 52.8435217C248.003333 52.8435217 247.64381 52.4819565 247.64381 52.3437391L247.64381 24.9054348C247.64381 24.1612609 248.003333 23.8422609 248.442381 23.8422609L253.369048 23.8422609C253.808095 23.8422609 254.168095 24.1612609 254.168095 24.6031739L254.168095 36.5721304 262.645714 24.3224348C262.847143 24.002 263.08381 23.8422609 263.521905 23.8422609L269.327619 23.8422609C269.766667 23.8422609 269.96619 24.0426522 269.96619 24.2827391 269.96619 24.4429565 269.88381 24.6433478 269.766667 24.8446957M45.8585714 52.6177826C44.5780952 52.8196087 43.0185714 53.1787826 38.2561905 53.1787826 33.0557143 53.1787826 29.0142857 51.7736522 29.0142857 45.2463478L29.0142857 31.997087C29.0142857 24.8643043 33.0557143 23.4572609 38.2561905 23.4572609 43.0185714 23.4572609 44.5780952 23.8188261 45.8585714 24.0187391 46.4585714 24.099087 46.6590476 24.3018696 46.6590476 24.8643043L46.6590476 27.435913C46.6590476 27.8773478 46.2990476 28.2393913 45.8585714 28.2393913L37.697619 28.2393913C35.3761905 28.2393913 34.5347619 29.041913 34.5347619 31.6948261L34.5347619 35.8623913 45.3790476 35.8623913C45.8190476 35.8623913 46.1795238 36.224913 46.1795238 36.6639565L46.1795238 39.5588696C46.1795238 40.0026957 45.8190476 40.3628261 45.3790476 40.3628261L34.5347619 40.3628261 34.5347619 44.944087C34.5347619 47.595087 35.3761905 48.3961739 37.697619 48.3961739L45.8585714 48.3961739C46.2990476 48.3961739 46.6590476 48.7615652 46.6590476 49.2034783L46.6590476 51.7736522C46.6590476 52.3356087 46.4585714 52.5364783 45.8585714 52.6177826M82.2628571 37.6740435C82.2628571 35.7509565 81.4266667 34.2688261 77.9947619 34.2688261 74.6033333 34.2688261 73.6842857 35.7901739 73.6842857 37.6740435L73.6842857 37.9954348C73.6842857 39.480913 74.282381 41.1624783 77.9947619 41.1624783 81.3057143 41.1624783 82.2628571 39.9988696 82.2628571 37.9954348L82.2628571 37.6740435 82.2628571 37.6740435zM82.7047619 54.3921304C82.7047619 53.5097391 82.1847619 52.988913 77.9947619 51.9855217L74.4414286 51.1456957C73.8428571 51.9855217 73.4438095 52.5068261 73.4438095 53.953087L73.4438095 54.3113043C73.4438095 55.955087 74.4414286 56.9575217 78.1933333 56.9575217 82.0257143 56.9575217 82.7047619 56.1172174 82.7047619 54.6728696L82.7047619 54.3921304 82.7047619 54.3921304zM87.7733333 33.8656522L86.4547619 34.3874348C87.0957143 35.3090435 87.4542857 36.19 87.4542857 37.5956087L87.4542857 37.874913C87.4542857 42.8880435 84.0209524 45.1722174 77.9947619 45.1722174 75.8780952 45.1722174 74.4414286 44.8101739 73.6457143 44.4897391 73.1647619 44.8101739 72.9657143 45.1722174 72.9657143 45.5342609 72.9657143 46.332 73.4042857 46.6553043 74.3219048 46.8556957L79.032381 47.9767391C84.46 49.2594348 87.9733333 50.1016522 87.9733333 54.3921304L87.9733333 54.6728696C87.9733333 58.7615217 84.9795238 60.9682174 78.1933333 60.9682174 71.727619 60.9682174 68.2952381 58.521913 68.2952381 54.3113043L68.2952381 53.953087C68.2952381 52.3073913 69.0533333 50.7047391 70.3304762 49.5406522 69.2128571 48.6998696 68.5361905 47.2961739 68.5361905 45.8527826L68.5361905 45.8116522C68.5361905 44.570087 69.0533333 43.327087 70.1314286 42.5661739 68.9338095 41.3217391 68.4966667 39.8793043 68.4966667 37.874913L68.4966667 37.5956087C68.4966667 33.5863478 71.0880952 30.2193913 77.9947619 30.2193913L87.3338095 30.2193913C87.9338095 30.2193913 88.4114286 30.699087 88.4114286 31.3021739L88.4114286 32.9832609C88.4114286 33.5863478 88.2533333 33.6662174 87.7733333 33.8656522L87.7733333 33.8656522zM94.6909524 52.8277391L91.0161905 52.8277391C90.5790476 52.8277391 90.2190476 52.427913 90.2190476 51.9855217L90.2190476 31.0195217C90.2190476 30.58 90.5790476 30.2193913 91.0161905 30.2193913L94.6909524 30.2193913C95.1290476 30.2193913 95.4866667 30.58 95.4866667 31.0195217L95.4866667 51.9855217C95.4866667 52.427913 95.1290476 52.8277391 94.6909524 52.8277391M115.146667 52.8277391L111.475238 52.8277391C111.035714 52.8277391 110.678095 52.427913 110.678095 51.9855217L110.678095 38.9170435C110.678095 35.4300435 110.359524 34.428087 107.285714 34.428087 105.928095 34.428087 105.010476 34.9886087 103.334762 35.871L103.334762 51.9855217C103.334762 52.427913 102.975714 52.8277391 102.538095 52.8277391L98.8657143 52.8277391C98.4252381 52.8277391 98.0647619 52.427913 98.0647619 51.9855217L98.0647619 31.0195217C98.0647619 30.58 98.4252381 30.2193913 98.8657143 30.2193913L102.337143 30.2193913C102.775714 30.2193913 103.134762 30.58 103.134762 31.0195217L103.134762 31.8631739C105.451429 30.3796087 106.406667 29.9367391 109.041429 29.9367391 114.787619 29.9367391 115.945238 33.826913 115.945238 38.9170435L115.945238 51.9855217C115.945238 52.427913 115.587143 52.8277391 115.146667 52.8277391M130.845238 39.4393043C130.845238 36.3119565 129.410476 34.5074783 126.935238 34.5074783 124.461429 34.5074783 122.94619 36.2703478 122.94619 39.4393043L122.94619 39.5995217 130.845238 39.5995217 130.845238 39.4393043 130.845238 39.4393043zM135.356667 43.3653478L122.906667 43.3653478 122.906667 43.4896957C122.906667 45.8116522 123.581905 48.5788696 127.414762 48.5788696 130.327143 48.5788696 132.802381 48.3373478 134.48 48.1785652L134.599048 48.1785652C134.997619 48.1785652 135.317619 48.378 135.317619 48.7806957L135.317619 51.425C135.317619 52.0663478 135.198095 52.3466087 134.48 52.4671304 131.885238 52.9496957 130.60619 53.1491304 127.014762 53.1491304 123.024286 53.1491304 117.638095 50.9840435 117.638095 43.085087L117.638095 40.1193913C117.638095 33.8656522 120.827619 29.9367391 126.935238 29.9367391 133.082381 29.9367391 136.155714 34.1468696 136.155714 40.1193913L136.155714 42.3633913C136.155714 43.0076087 135.914286 43.3653478 135.356667 43.3653478L135.356667 43.3653478zM150.584762 39.4393043C150.584762 36.3119565 149.149048 34.5074783 146.672857 34.5074783 144.197619 34.5074783 142.682857 36.2703478 142.682857 39.4393043L142.682857 39.5995217 150.584762 39.5995217 150.584762 39.4393043 150.584762 39.4393043zM155.095238 43.3653478L142.64381 43.3653478 142.64381 43.4896957C142.64381 45.8116522 143.320952 48.5788696 147.153333 48.5788696 150.067143 48.5788696 152.539048 48.3373478 154.217143 48.1785652L154.335238 48.1785652C154.735714 48.1785652 155.05619 48.378 155.05619 48.7806957L155.05619 51.425C155.05619 52.0663478 154.934286 52.3466087 154.217143 52.4671304 151.620952 52.9496957 150.345714 53.1491304 146.752857 53.1491304 142.762857 53.1491304 137.374762 50.9840435 137.374762 43.085087L137.374762 40.1193913C137.374762 33.8656522 140.566667 29.9367391 146.672857 29.9367391 152.82 29.9367391 155.892381 34.1468696 155.892381 40.1193913L155.892381 42.3633913C155.892381 43.0076087 155.652381 43.3653478 155.095238 43.3653478L155.095238 43.3653478zM168.920476 34.428087C166.764762 34.428087 165.089048 34.9886087 163.412857 35.871L163.412857 51.9855217C163.412857 52.427913 163.053333 52.8277391 162.612857 52.8277391L158.941429 52.8277391C158.50381 52.8277391 158.145714 52.427913 158.145714 51.9855217L158.145714 31.0195217C158.145714 30.58 158.50381 30.2193913 158.941429 30.2193913L162.414762 30.2193913C162.85381 30.2193913 163.213333 30.58 163.213333 31.0195217L163.213333 31.8631739C165.169524 30.339913 167.326667 29.9367391 168.920476 29.9367391 169.361429 29.9367391 169.719048 30.2987826 169.719048 30.7392609L169.719048 33.6265217C169.719048 34.0679565 169.361429 34.428087 168.920476 34.428087M196.574762 52.8277391L192.903333 52.8277391C192.462381 52.8277391 192.104762 52.427913 192.104762 51.9855217L192.104762 38.9170435C192.104762 35.4300435 191.783333 34.428087 188.711429 34.428087 187.354286 34.428087 186.439048 34.9886087 184.760476 35.871L184.760476 51.9855217C184.760476 52.427913 184.402857 52.8277391 183.965238 52.8277391L180.291429 52.8277391C179.852381 52.8277391 179.49381 52.427913 179.49381 51.9855217L179.49381 31.0195217C179.49381 30.58 179.852381 30.2193913 180.291429 30.2193913L183.764762 30.2193913C184.20381 30.2193913 184.562381 30.58 184.562381 31.0195217L184.562381 31.8631739C186.877143 30.3796087 187.832381 29.9367391 190.468571 29.9367391 196.215238 29.9367391 197.370952 33.826913 197.370952 38.9170435L197.370952 51.9855217C197.370952 52.427913 197.01381 52.8277391 196.574762 52.8277391M213.068095 37.6740435C213.068095 35.7509565 212.230952 34.2688261 208.797143 34.2688261 205.405238 34.2688261 204.486667 35.7901739 204.486667 37.6740435L204.486667 37.9954348C204.486667 39.480913 205.08619 41.1624783 208.797143 41.1624783 212.110952 41.1624783 213.068095 39.9988696 213.068095 37.9954348L213.068095 37.6740435 213.068095 37.6740435zM213.508571 54.3921304C213.508571 53.5097391 212.989524 52.988913 208.797143 51.9855217L205.24619 51.1456957C204.646667 51.9855217 204.248095 52.5068261 204.248095 53.953087L204.248095 54.3113043C204.248095 55.955087 205.24619 56.9575217 208.997143 56.9575217 212.827619 56.9575217 213.508571 56.1172174 213.508571 54.6728696L213.508571 54.3921304 213.508571 54.3921304zM218.575714 33.8656522L217.259524 34.3874348C217.898095 35.3090435 218.258095 36.19 218.258095 37.5956087L218.258095 37.874913C218.258095 42.8880435 214.826667 45.1722174 208.797143 45.1722174 206.683333 45.1722174 205.24619 44.8101739 204.446667 44.4897391 203.965238 44.8101739 203.768571 45.1722174 203.768571 45.5342609 203.768571 46.332 204.207619 46.6553043 205.127143 46.8556957L209.835714 47.9767391C215.263333 49.2594348 218.778095 50.1016522 218.778095 54.3921304L218.778095 54.6728696C218.778095 58.7615217 215.782381 60.9682174 208.997143 60.9682174 202.531905 60.9682174 199.098095 58.521913 199.098095 54.3113043L199.098095 53.953087C199.098095 52.3073913 199.85619 50.7047391 201.132857 49.5406522 200.015238 48.6998696 199.338571 47.2961739 199.338571 45.8527826L199.338571 45.8116522C199.338571 44.570087 199.85619 43.327087 200.933333 42.5661739 199.73619 41.3217391 199.297143 39.8793043 199.297143 37.874913L199.297143 37.5956087C199.297143 33.5863478 201.892381 30.2193913 208.797143 30.2193913L218.137619 30.2193913C218.735714 30.2193913 219.214762 30.699087 219.214762 31.3021739L219.214762 32.9832609C219.214762 33.5863478 219.05619 33.6662174 218.575714 33.8656522L218.575714 33.8656522zM65.7947619 52.8277391L62.1228571 52.8277391C61.6828571 52.8277391 61.3247619 52.427913 61.3247619 51.9855217L61.3247619 38.9170435C61.3247619 35.4300435 61.0066667 34.428087 57.932381 34.428087 56.5738095 34.428087 55.6580952 34.9886087 53.9814286 35.871L53.9814286 51.9855217C53.9814286 52.427913 53.6219048 52.8277391 53.1842857 52.8277391L49.5128571 52.8277391C49.072381 52.8277391 48.7114286 52.427913 48.7114286 51.9855217L48.7114286 31.0195217C48.7114286 30.58 49.072381 30.2193913 49.5128571 30.2193913L52.9842857 30.2193913C53.4228571 30.2193913 53.7814286 30.58 53.7814286 31.0195217L53.7814286 31.8631739C56.0980952 30.3796087 57.0538095 29.9367391 59.6880952 29.9367391 65.4342857 29.9367391 66.5919048 33.826913 66.5919048 38.9170435L66.5919048 51.9855217C66.5919048 52.427913 66.2342857 52.8277391 65.7947619 52.8277391M95.68 25.1244783C95.68 26.6912609 94.4147619 27.9615217 92.8542857 27.9615217 91.2938095 27.9615217 90.027619 26.6912609 90.027619 25.1244783 90.027619 23.5567391 91.2938095 22.286 92.8542857 22.286 94.4147619 22.286 95.68 23.5567391 95.68 25.1244783M175.943333 52.8277391L172.27 52.8277391C171.832857 52.8277391 171.47381 52.427913 171.47381 51.9855217L171.47381 31.0195217C171.47381 30.58 171.832857 30.2193913 172.27 30.2193913L175.943333 30.2193913C176.381905 30.2193913 176.740476 30.58 176.740476 31.0195217L176.740476 51.9855217C176.740476 52.427913 176.381905 52.8277391 175.943333 52.8277391M176.933333 25.1244783C176.933333 26.6912609 175.668095 27.9615217 174.107143 27.9615217 172.547143 27.9615217 171.280952 26.6912609 171.280952 25.1244783 171.280952 23.5567391 172.547143 22.286 174.107143 22.286 175.668095 22.286 176.933333 23.5567391 176.933333 25.1244783"/>
</g>
</svg>
