<?xml version="1.0" encoding="UTF-8"?>
<svg width="500px" height="250px" viewBox="0 0 500 250" version="1.1" xmlns="http://www.w3.org/2000/svg" xmlns:xlink="http://www.w3.org/1999/xlink">
<g fill-rule="evenodd">
<path d="M322.808989,65 L322.808989,87.8555556 L310.674157,65 L130,65 L130,186 L177.191011,186 L177.191011,112.055556 L194.719101,112.055556 L194.719101,186 L243.258427,186 L243.258427,112.055556 L260.786517,112.055556 L260.786517,186 L307.977528,186 L307.977528,161.8 L322.808989,186 L370,186 L370,65 L322.808989,65 Z M336.292135,78.4444444 L356.516854,78.4444444 L356.516854,172.555556 L329.550562,172.555556 L294.494382,112.055556 L294.494382,172.555556 L274.269663,172.555556 L274.269663,78.4444444 L302.58427,78.4444444 L336.292135,140.288889 L336.292135,78.4444444 Z M177.191011,78.4444444 L260.786517,78.4444444 L260.786517,98.6111111 L229.775281,98.6111111 L229.775281,172.555556 L208.202247,172.555556 L208.202247,98.6111111 L177.191011,98.6111111 L177.191011,78.4444444 Z M143.483146,172.555556 L163.707865,172.555556 L163.707865,78.4444444 L143.483146,78.4444444 L143.483146,172.555556 Z" id="Fill-1" fill="#000000"></path>
</g>
</svg>