<?xml version="1.0" encoding="UTF-8"?>
<svg width="500px" height="250px" viewBox="0 0 500 250" version="1.1" xmlns="http://www.w3.org/2000/svg" xmlns:xlink="http://www.w3.org/1999/xlink">
<g>
<g transform="translate(200, 7)">
<path d="M91.9489,84.4155 C43.4219,84.4155 3.9409,66.3625 3.9409,44.1735 C3.9409,21.9825 43.4219,3.9285 91.9489,3.9285 C140.4759,3.9285 179.9559,21.9825 179.9559,44.1735 C179.9559,66.3625 140.4759,84.4155 91.9489,84.4155 M91.9489,0.3445 C41.1989,0.3445 0.0559,19.9675 0.0559,44.1725 C0.0559,68.3795 41.1989,88.0005 91.9489,88.0005 C142.6979,88.0005 183.8409,68.3795 183.8409,44.1725 C183.8409,19.9675 142.6979,0.3445 91.9489,0.3445" fill="#000000" ></path>
</g>
<path d="M352.8288,59.3686 C351.8618,62.2596 349.4138,64.7606 346.2588,65.2856 L349.9888,73.8726 L343.1978,73.8726 L340.3368,65.8156 L339.8808,65.8156 L337.1888,73.8726 L331.1958,73.8726 L338.1958,52.9236 L347.6888,52.9236 C351.8378,52.9236 354.3238,54.8956 352.8288,59.3686 L352.8288,59.3686 Z M328.3538,65.6506 L322.2048,65.6506 L320.9958,69.2646 L327.4818,69.2646 L325.9408,73.8716 L313.4648,73.8716 L320.4638,52.9246 L332.9398,52.9246 L331.3978,57.5376 L324.9118,57.5376 L323.7438,61.0346 L329.8948,61.0346 L328.3538,65.6506 Z M296.5508,73.8736 L296.1988,52.9246 L302.1268,52.9246 L302.2718,64.8476 L310.9478,52.9246 L317.5458,52.9246 L302.1218,73.8736 L296.5508,73.8736 Z M292.4278,64.0786 C290.9078,70.8716 286.6828,74.5656 280.2338,74.5656 C274.1688,74.5656 270.7008,69.3446 272.2468,62.7396 C273.7318,56.4076 278.5198,52.2286 284.2598,52.2286 C289.9978,52.2286 294.1088,56.5746 292.4278,64.0786 L292.4278,64.0786 Z M269.9828,59.3686 C269.0168,62.2596 266.5658,64.7606 263.4128,65.2856 L267.1408,73.8726 L260.3498,73.8726 L257.4908,65.8156 L257.0318,65.8156 L254.3408,73.8726 L248.3508,73.8726 L255.3478,52.9236 L264.8418,52.9236 C268.9898,52.9236 271.4758,54.8956 269.9828,59.3686 L269.9828,59.3686 Z M245.3738,57.2946 L235.6728,60.7646 L244.2368,60.7646 L242.5638,65.7066 L228.5788,65.7066 L230.2528,60.6336 L246.1108,54.9566 L245.3738,57.2946 Z M246.6378,25.9396 L252.7628,25.9396 L247.3078,42.2756 L253.8478,42.2756 L252.3068,46.8896 L239.6408,46.8896 L246.6378,25.9396 Z M269.3638,25.9386 L275.3208,25.9386 L276.2278,46.8886 L270.4088,46.8886 L270.2608,43.2476 L262.7458,43.2476 L260.0838,46.8886 L254.2908,46.8886 L269.3638,25.9386 Z M285.9838,25.9396 L291.9768,25.9396 L294.4788,37.6796 L298.5448,25.9396 L304.2668,25.9396 L297.2698,46.8896 L290.8788,46.8896 L288.3298,36.1896 L284.8458,46.8896 L278.9848,46.8896 L285.9838,25.9396 Z M317.6828,25.9396 C323.5298,25.9396 326.7988,30.5196 324.8448,36.4126 C322.5688,43.2836 318.5118,46.8896 312.6918,46.8896 L302.4108,46.8896 L309.4098,25.9396 L317.6828,25.9396 Z M329.5138,42.0926 L339.2148,38.6196 L330.6498,38.6196 L332.3238,33.6776 L346.3078,33.6776 L344.6358,38.7536 L328.7768,44.4306 L329.5138,42.0926 Z M291.9488,13.0316 C244.4718,13.0316 205.8458,30.2306 205.8458,51.3726 C205.8458,72.5126 244.4718,89.7106 291.9488,89.7106 C339.4268,89.7106 378.0518,72.5126 378.0518,51.3726 C378.0518,30.2306 339.4268,13.0316 291.9488,13.0316 L291.9488,13.0316 Z" fill="#000000"></path>
<polygon fill="#000000" points="270.1921 32.4101 270.1351 32.4101 265.6521 39.0781 270.1921 39.0781"></polygon>
<path d="M318.0974,36.413 C319.3504,32.665 318.6484,30.55 315.1424,30.55 L314.2644,30.55 L310.3454,42.276 L310.7694,42.276 C314.0244,42.276 316.7354,40.5 318.0974,36.413" fill="#000000"></path>
<path d="M261.2868,57.0727 L259.9538,57.0727 L258.2078,62.2957 L258.7358,62.2957 C260.5178,62.2957 262.6368,61.9607 263.3948,59.6837 C264.1568,57.4077 263.0688,57.0727 261.2868,57.0727" fill="#000000"></path>
<path d="M283.5954,57.5063 C281.2004,57.5063 279.7214,59.7133 279.0384,63.0383 C278.2984,66.6303 278.5334,69.2863 280.9254,69.2863 C283.3204,69.2863 285.0934,66.7803 285.7484,63.1673 C286.2734,60.2783 285.9894,57.5063 283.5954,57.5063" fill="#000000"></path>
<path d="M344.1335,57.0727 L342.8005,57.0727 L341.0565,62.2957 L341.5855,62.2957 C343.3665,62.2957 345.4835,61.9607 346.2445,59.6837 C347.0055,57.4077 345.9155,57.0727 344.1335,57.0727" fill="#000000"></path>
<path d="M125.8874,38.1508 L123.2314,38.1508 C119.7874,38.1508 116.4424,36.7768 116.4424,36.7768 C119.0364,39.4658 123.0964,39.6598 123.0964,39.6598 L126.9704,39.9208 C129.8234,40.1148 130.4144,41.4918 130.4144,41.4918 C132.8874,45.8248 139.0714,48.1718 139.0714,48.1718 C135.1354,45.9108 132.2824,40.9018 132.2824,40.9018 C130.4144,38.1508 125.8874,38.1508 125.8874,38.1508" fill="#000000"></path>
<path d="M158.6413,47.8383 C158.6413,47.8383 152.0793,53.0763 144.9343,49.8053 C142.9313,48.8893 140.3833,48.6923 140.3833,48.6923 C142.8123,49.5443 143.6623,50.2633 143.6623,50.2633 C145.5013,51.3763 144.2543,53.3403 144.2543,53.3403 C142.6993,56.0883 136.6013,54.7143 136.6013,54.7143 C143.0933,59.0333 145.8163,55.7923 145.8163,55.7923 C147.4903,53.7953 147.0933,52.8153 146.6343,51.5693 C146.6343,51.5693 152.5403,53.4703 158.6413,47.8383" fill="#000000"></path>
<path d="M33.6027,3.6855 C33.6027,3.6855 29.7667,4.1435 27.9287,4.1115 C27.9287,4.1115 27.5347,4.1785 27.5347,4.4365 C27.5347,4.4365 27.6667,4.8975 28.4877,4.8975 C28.4877,4.8975 31.8967,4.7985 33.6027,3.6855" fill="#000000"></path>
<path d="M134.7057,53.603 C133.1317,52.425 129.9167,49.348 129.9167,49.348 C125.8497,45.746 119.2817,45.719 119.2817,45.719 L112.6367,45.681 C99.9787,45.565 96.6637,34.173 96.6637,34.173 C95.0127,30.617 91.2517,30.835 91.2517,30.835 C90.9637,30.83 90.6797,30.819 90.3987,30.832 C77.9367,31.455 73.8547,30.46 73.8547,30.46 C71.3317,29.757 68.4187,28.717 65.6467,27.192 C65.6467,27.192 66.2377,24.376 65.0557,22.019 C65.0557,22.019 69.6467,23.853 73.8477,22.87 C73.8477,22.87 67.0877,21.167 62.3027,17.764 C62.3027,17.764 64.5967,24.376 62.6937,26.866 C62.6937,26.866 61.4497,31.449 50.0367,27.715 C50.0367,27.715 45.3127,25.882 41.6397,25.882 C41.6397,25.882 38.6857,26.015 38.6857,27.52 C38.6857,27.52 38.6857,28.24 39.4097,28.566 C39.4097,28.566 40.2597,29.156 39.7357,30.466 C39.7357,30.466 40.9157,29.614 40.5887,28.372 C40.5887,28.372 40.4567,27.715 41.0477,27.585 C41.0477,27.585 42.6217,26.931 47.0837,28.566 C47.0837,28.566 54.2987,31.84 58.4317,31.84 C58.4317,31.84 62.8907,31.579 64.5317,29.614 C64.5317,29.614 68.3157,31.145 73.6037,31.749 C73.6037,31.749 78.7897,32.185 87.3167,31.789 C89.4217,31.692 90.4667,32.012 90.4667,32.012 C94.2917,32.581 94.8937,34.37 94.8937,34.37 C94.8937,34.37 101.6827,48.317 115.0627,47.974 L121.3817,48.009 C127.0877,48.009 134.7057,53.603 134.7057,53.603" fill="#000000"></path>
<g transform="translate(13.000000, 0.199200)">
<path d="M1.2121,10.3291 C0.9401,10.0841 1.2121,9.7631 1.2121,9.7631 C2.4161,8.4371 4.0651,7.3571 4.0651,7.3571 C4.6291,7.1361 4.7051,7.4561 4.7051,7.4561 C4.7291,7.7261 4.4081,7.8231 4.4081,7.8231 C2.8581,8.7581 1.5821,10.2071 1.5821,10.2071 C1.3601,10.4531 1.2121,10.3291 1.2121,10.3291 M8.4681,5.8781 C8.4681,5.8781 7.6471,7.1521 6.1731,6.9911 C6.1731,6.9911 6.5321,5.4171 8.4681,5.8781 M11.8121,18.7251 C14.9861,15.3141 19.4861,15.0441 19.4861,15.0441 C25.2681,14.6511 32.3021,20.2501 32.3021,20.2501 C27.3361,13.6431 22.0961,13.2011 22.0961,13.2011 C20.7901,12.9801 20.2741,11.6301 20.2741,11.6301 C18.6041,8.5611 16.7091,8.4131 16.7091,8.4131 C17.6431,9.6901 17.5451,11.4331 17.5451,11.4331 C17.5451,14.6511 12.7251,15.1171 12.7251,15.1171 C10.8051,18.8971 9.1891,18.6761 9.1891,18.6761 C8.3381,18.6761 8.1061,18.1861 8.1061,18.1861 C7.9091,17.8921 8.2381,17.6311 8.2381,17.6311 C8.7621,17.3021 9.2541,16.8761 9.2541,16.8761 C12.5361,14.3541 12.5681,11.5091 12.5681,11.5091 C12.1421,8.2001 9.3531,8.1361 9.3531,8.1361 C8.0741,8.1361 7.5181,8.9221 7.5181,8.9221 C7.0241,9.5101 5.7471,11.8031 5.7471,11.8031 C4.7941,13.3731 3.9411,13.1441 3.9411,13.1441 C2.8911,13.2091 2.1061,12.2281 2.1061,12.2281 C2.0621,12.1881 2.0301,12.1501 1.9981,12.1131 C1.5981,11.6111 1.9081,11.0481 1.9081,11.0481 C3.1551,9.0521 5.7761,8.5611 5.7761,8.5611 C5.8681,8.5351 5.9581,8.5071 6.0461,8.4801 C6.0461,8.4801 6.2781,8.4241 6.5381,8.3401 L6.5221,8.3241 C9.9171,7.1311 10.2061,5.3521 10.2061,5.3521 C9.0591,4.6981 7.9771,4.7301 7.9771,4.7301 C5.9121,4.8621 5.2201,6.8911 5.2201,6.8911 L4.7291,6.3761 C4.7291,6.3761 4.5081,6.1041 4.8531,5.7861 C4.8531,5.7861 6.4001,3.8781 12.0741,3.0301 C12.0741,3.0301 16.7331,2.2431 22.7691,2.9951 C22.7691,2.9951 19.0271,6.8911 14.5361,5.2551 C14.5361,5.2551 14.4681,6.6941 18.4041,7.4131 C18.4041,7.4131 22.5391,7.8391 27.7521,12.8161 C27.7521,12.8161 26.3781,9.8041 21.9161,6.4001 C21.9161,6.4001 21.5541,6.1711 21.8831,5.8431 C21.8831,5.8431 23.8161,3.6171 26.4071,3.6521 C26.4071,3.6521 39.8231,4.3361 47.3671,12.1931 C47.3671,12.1931 47.1031,10.8871 45.9561,8.9841 C45.9561,8.9841 45.7261,8.7581 45.8561,8.5941 C45.8561,8.5941 45.9561,8.2651 47.2681,8.5291 C47.2681,8.5291 52.0561,9.3131 63.1741,13.3731 L75.2111,17.6631 C75.2111,17.6631 79.4111,19.2021 81.7371,20.2501 C81.7371,20.2501 77.0491,20.0851 74.5551,21.3631 C74.5551,21.3631 74.4521,21.4271 74.5011,21.5141 C74.5011,21.5141 74.5281,21.6001 74.7351,21.5621 C74.7351,21.5621 78.6851,20.4811 82.4961,22.1521 C82.4961,22.1521 86.3941,23.7341 89.4711,26.1911 C89.4711,26.1911 91.5601,28.0071 92.8881,29.4811 C92.8881,29.4811 95.9871,32.3771 99.5801,34.4411 C99.5801,34.4411 96.6781,31.6901 94.2681,29.1361 C94.2681,29.1361 90.8231,25.0111 89.2471,23.6371 C89.2471,23.6371 101.1271,29.1981 111.8291,35.2251 C113.7491,36.3091 119.9461,39.8921 119.9461,39.8921 C125.9581,43.6161 131.8451,45.9901 131.8451,45.9901 C137.2241,48.4121 141.6841,45.8581 141.6841,45.8581 L141.8971,45.7641 C144.7821,44.2711 145.4441,44.7431 145.4441,44.7431 C146.8691,45.2811 146.4621,46.7551 146.4621,46.7551 C147.7061,45.4781 147.5951,44.7861 147.5951,44.7861 C147.5551,42.5981 145.1551,42.7781 145.1551,42.7781 C144.5311,42.8481 142.4691,43.9961 141.1521,44.7591 L140.7661,45.0091 C137.2841,46.8091 132.4361,45.1361 132.4361,45.1361 C126.0061,42.5871 120.3891,39.1051 120.3891,39.1051 C120.3891,39.1051 109.3701,32.5741 99.8741,27.8101 C99.8741,27.8101 88.0191,21.6731 72.1281,14.7961 C72.1281,14.7961 41.8231,0.8011 19.4861,0.8011 C19.4861,0.8011 7.9091,0.6531 3.9901,5.0991 C3.9901,5.0991 3.5491,5.7861 3.6471,6.3761 C3.6471,6.3761 3.6951,6.5701 3.5491,6.6941 C3.5491,6.6941 1.8251,7.8231 0.4241,9.4451 C0.4241,9.4451 -0.4129,10.2561 0.2781,11.3611 C0.2781,11.3611 0.7671,12.1451 1.2121,12.7351 L1.2171,12.7301 C1.4221,13.0041 2.5971,14.4651 4.3351,14.3301 C4.3351,14.3301 4.8261,14.3061 5.0751,14.4541 C5.0751,14.4541 5.5171,14.8481 6.0571,15.0441 L6.8701,15.0441 C6.8701,15.0441 7.0431,15.0201 7.0641,14.8721 C7.0641,14.8721 7.0161,14.4301 6.9191,14.1361 C6.9191,14.1361 6.4491,13.5221 6.6491,12.7841 C6.6491,12.7841 6.8431,11.5581 7.6071,10.6711 C7.6071,10.6711 8.4431,9.8871 9.4261,10.5991 C9.4261,10.5991 11.2961,12.2211 10.3381,14.1581 C10.3381,14.1581 9.5501,15.6321 8.6891,15.6321 C8.6891,15.6321 8.2711,15.7561 7.8281,15.3381 L7.2611,15.2651 C7.2611,15.2651 7.0911,15.2651 7.0911,15.4111 L7.1151,15.8281 C7.1151,15.8281 7.1151,16.0761 7.2371,16.1971 C7.2371,16.1971 7.4581,16.4671 7.2121,16.8121 C7.2121,16.8121 6.6721,17.3021 6.9421,18.0141 C6.9421,18.0141 7.4371,20.0781 9.1081,20.0781 C10.5841,20.1261 11.8121,18.7251 11.8121,18.7251" fill="#000000"></path>
</g>
<path d="M43.2111,23.1327 C49.9701,23.1327 60.4621,25.0297 60.4621,25.0297 C52.5261,23.1967 50.1001,21.2337 50.1001,21.2337 C46.7551,19.2037 47.4111,13.8347 47.4111,13.8347 C44.2611,18.2857 46.7551,21.4297 46.7551,21.4297 C38.2931,21.1687 35.8661,23.5267 35.8661,23.5267 C31.7311,26.7327 33.2401,30.4647 33.2401,30.4647 C35.6021,34.1987 38.3581,31.5767 38.3581,31.5767 C34.4221,32.3637 34.4871,28.8937 34.4871,28.8937 C35.3401,22.8717 43.2111,23.1327 43.2111,23.1327" fill="#000000"></path>
<path d="M107.7419,74.8315 C107.7419,76.3265 107.6149,77.2965 107.4529,78.0915 C106.7459,81.5265 104.1409,82.7905 100.2299,82.7905 C98.3779,82.7905 96.1829,82.3625 94.9149,80.8885 C93.7969,79.6335 93.5619,77.9305 93.5619,75.0735 L93.5619,62.4315 L89.4139,62.4315 L89.4139,75.2945 C89.4139,77.9195 89.6889,80.3735 91.5059,82.1515 C93.1819,83.8285 96.4399,84.5715 100.1429,84.5715 C105.6009,84.5715 108.8619,82.7555 109.9039,78.4385 C110.1709,77.3375 110.2959,76.1195 110.2959,73.9665 L110.2959,62.4315 L107.7419,62.4315 L107.7419,74.8315 Z" fill="#000000"></path>
<path d="M126.111,76.5356 L130.913,66.5396 L135.48,76.5356 L126.111,76.5356 Z M130.665,62.4326 L119.84,84.0916 L122.472,84.0916 L125.401,78.0096 L136.166,78.0096 L138.898,84.0916 L143.835,84.0916 L133.243,62.4326 L130.665,62.4326 Z" fill="#000000"></path>
<path d="M27.3298,76.5356 L32.1288,66.5396 L36.6988,76.5356 L27.3298,76.5356 Z M31.8838,62.4326 L21.0568,84.0916 L23.6908,84.0916 L26.6218,78.0096 L37.3848,78.0096 L40.1188,84.0916 L45.0538,84.0916 L34.4588,62.4326 L31.8838,62.4326 Z" fill="#000000"></path>
<path d="M72.0524,82.0414 C70.7164,82.5534 68.7724,82.8044 67.3684,82.8044 C61.8514,82.8044 58.2644,79.0284 58.2644,73.5164 C58.2644,67.4274 62.3264,63.7484 68.2214,63.7484 C70.8074,63.7484 73.4644,64.7804 75.4804,66.2814 L75.4804,63.7054 C73.2534,62.5794 70.3974,62.0214 67.9274,62.0214 C63.8514,62.0214 59.5304,63.2534 56.6854,66.3324 C54.8684,68.3184 53.6674,71.0884 53.6674,73.7914 C53.6674,82.1054 60.4774,84.5714 67.6444,84.5714 C70.3164,84.5714 73.7664,84.0574 76.1984,82.9634 L76.1984,74.1334 L72.0524,74.1334 L72.0524,82.0414 Z" fill="#000000"></path>
<path d="M165.8239,73.0414 C164.7819,73.8794 163.4429,74.2974 161.2079,74.2974 L158.5409,74.2974 L158.5409,63.9344 L161.5889,63.9344 C164.9139,63.9344 167.5809,65.3214 167.5809,68.9804 C167.5809,70.8084 166.9229,72.1604 165.8239,73.0414 M171.8189,69.1234 C171.8189,67.2944 171.3139,65.8714 170.3829,64.8484 C168.6129,62.8914 165.4249,62.4314 162.2419,62.4314 L154.3899,62.4314 L154.3899,84.0884 L158.5409,84.0884 L158.5409,75.7734 L162.8869,75.7734 L168.6339,84.0884 L173.4139,84.0884 L167.0389,75.2964 C169.2899,74.4994 171.8189,72.4704 171.8189,69.1234" fill="#000000"></path>
<path d="M4.6994,76.0532 C4.6994,77.9662 4.6994,79.8852 4.4594,81.8032 C4.0464,85.2602 2.8474,87.3482 0.0004,89.3992 C1.2364,89.3992 2.4344,89.0572 3.5334,88.5422 C7.3044,86.6972 8.8484,82.8272 8.8484,78.8252 L8.8484,62.4332 L4.6994,62.4332 L4.6994,76.0532 Z" fill="#000000"></path>
</g>
</svg>