<?xml version="1.0" encoding="utf-8"?>
<svg version="1.1" xmlns="http://www.w3.org/2000/svg" xmlns:xlink="http://www.w3.org/1999/xlink" x="0px" y="0px"
width="435px" height="200px" viewBox="0 0 435 200" xml:space="preserve">
<g>
<path fill="#000000" d="M70.3,148.104H41.595c-0.266,0-0.531,0-0.797-0.265l-23.123-17.276c-0.266-0.265-0.532-0.531-0.532-0.799l-9.037-27.906c0-0.267,0-0.531,0-0.797l9.037-30.3c0-0.266,0.266-0.531,0.532-0.797l23.654-17.276c0.266-0.266,0.531-0.266,0.797-0.266h27.642c0.266,0,0.532,0,0.797,0.266L94.22,69.965c0.266,0.266,0.531,0.531,0.531,0.797l9.037,30.033c0,0.267,0,0.532,0,0.797l-8.77,28.173c0,0.268-0.267,0.534-0.533,0.799L71.363,147.84C70.832,148.104,70.565,148.104,70.3,148.104 M42.924,145.183h23.654c-9.302-9.037-18.604-17.012-28.172-24.188C39.203,128.702,40.797,136.941,42.924,145.183 M39.469,118.071c10.366,7.442,19.934,15.946,30.034,25.516c2.392-12.758,3.72-24.983,4.253-36.678C60.997,109.565,49.037,113.553,39.469,118.071 M76.413,108.238c-0.532,11.163-1.86,22.856-3.987,34.815l19.137-14.087C87.31,120.464,82.26,113.553,76.413,108.238 M20.864,129.233l18.339,13.556c-1.86-7.707-3.19-15.414-3.987-22.856C29.635,122.854,24.851,126.045,20.864,129.233 M12.094,104.517l7.176,22.324c3.986-3.188,8.771-6.377,14.353-9.302C26.445,112.754,19.535,108.238,12.094,104.517 M78.273,105.846c5.582,5.316,10.631,11.693,14.618,19.668l7.176-22.326C93.157,103.452,85.715,104.517,78.273,105.846 M37.343,86.443c-0.798,9.303-0.798,19.136,0.266,28.971c9.834-4.519,21.529-8.505,34.021-11.163c-7.442-5.581-15.15-9.037-23.123-12.757C44.785,89.898,41.063,88.304,37.343,86.443 M12.094,101.062c7.707,3.987,15.149,8.504,22.325,13.554c-0.797-9.566-0.797-19.135-0.266-28.172C25.648,90.43,18.207,95.48,12.094,101.062 M75.35,76.609c1.063,8.505,1.329,17.543,1.329,26.312c7.708-1.594,15.416-2.657,22.591-3.188C92.094,91.227,84.387,83.786,75.35,76.609M39.735,84.052c3.189,1.594,6.378,2.922,10.1,4.518c7.973,3.455,15.947,7.176,23.921,13.022c0-9.034-0.267-18.072-1.595-26.843C60.2,77.142,49.303,80.065,39.735,84.052 M19.27,73.952l-6.645,22.591c5.582-4.784,12.492-9.036,20.2-12.757C27.509,80.862,23.256,77.673,19.27,73.952 M77.21,74.217c7.974,6.113,15.15,13.023,21.528,20.466l-6.378-22.06C87.31,73.154,82.26,73.686,77.21,74.217 M42.924,56.145c-2.393,8.238-4.252,16.744-5.316,25.514c9.568-3.986,20.199-7.176,31.894-9.036C62.326,67.042,53.821,61.992,42.924,56.145 M20.864,71.293c3.987,3.987,8.505,7.177,13.821,10.366c0.797-7.974,2.392-15.947,4.519-23.654L20.864,71.293z M72.16,57.473c1.063,4.519,1.86,9.303,2.658,14.086c4.784-0.797,9.568-1.329,14.351-1.594L72.16,57.473z M47.974,55.347c9.036,5.049,16.745,9.834,23.389,14.618c-0.797-4.784-1.595-9.834-2.924-14.618H47.974z"/>
<path fill="#000000" d="M256.347,76.876l-17.009,47.041h9.568l2.924-8.239h16.745l2.657,8.239h9.569l-17.276-47.041H256.347zM254.221,107.705l5.848-17.01l5.849,17.01H254.221z M322.262,91.227c0-7.972-5.582-14.351-15.149-14.351h-18.341v47.041h9.304v-18.868h6.645l9.301,18.868h10.634l-10.634-20.197C318.275,101.858,322.262,97.872,322.262,91.227z M306.316,97.34h-8.772V84.849h8.772c3.985,0,6.642,2.658,6.642,6.112C312.958,94.683,310.301,97.34,306.316,97.34z M366.381,91.227c0-7.972-5.581-14.351-15.149-14.351h-18.338v47.041h9.301v-18.868h6.647l9.302,18.868h10.63l-10.63-20.197C362.395,101.858,366.381,97.872,366.381,91.227z M350.7,97.34h-8.771V84.849h8.771c3.987,0,6.645,2.658,6.645,6.112C357.345,94.683,354.687,97.34,350.7,97.34z M377.013,76.876h9.304v47.041h-9.304V76.876z M425.385,99.999c2.395,2.391,3.722,5.847,3.722,10.101c0,9.036-7.708,14.352-17.54,14.352c-7.178,0-12.495-1.597-17.278-6.113l5.847-5.849c2.924,2.925,6.911,3.987,11.432,3.987c5.314,0,8.238-2.126,8.238-5.848c0-1.592-0.534-2.924-1.33-3.987c-0.796-0.796-1.858-1.327-4.253-1.593l-5.58-0.798c-3.987-0.531-6.911-1.861-9.036-3.987c-2.125-2.126-3.457-5.315-3.457-9.303c0-8.503,6.114-14.352,16.481-14.352c6.377,0,11.162,1.596,15.149,5.582l-5.849,5.848c-2.924-2.924-6.646-3.189-9.568-3.189c-4.784,0-7.178,2.658-7.178,5.847c0,1.064,0.267,2.394,1.332,3.457c0.796,0.797,2.39,1.594,4.252,1.86l5.581,0.797C420.601,96.809,423.525,98.138,425.385,99.999z M187.245,110.1c0,9.302-6.911,14.084-14.884,14.084c-6.645,0-13.024-3.188-14.619-10.364l8.24-3.455c0,4.251,2.924,6.112,6.379,6.112c3.721,0,6.378-2.391,6.378-6.644c0-3.987-2.392-6.381-6.645-6.381h-0.266v-7.44h0.266c4.253,0,5.848-2.657,5.848-5.848c0-3.987-2.657-6.112-5.848-6.112c-3.188,0-5.581,2.125-5.847,5.581l-8.24-3.455c1.596-6.378,7.178-10.1,13.821-10.1c8.24,0,14.354,5.582,14.354,13.555c0,5.051-2.394,7.974-5.316,9.569C184.586,101.327,187.245,104.517,187.245,110.1z M222.062,76.876h9.302v47.041h-9.302v-19.666h-15.946v19.666h-9.303V76.876h9.303v19.136h15.946V76.876z M137.012,115.678h14.883v8.239h-23.92V76.876h9.303C137.012,76.876,137.012,115.678,137.012,115.678z"/>
</g>
</svg>
