<?xml version="1.0" encoding="UTF-8"?>
<svg width="500px" height="250px" viewBox="0 0 500 250" version="1.1" xmlns="http://www.w3.org/2000/svg" xmlns:xlink="http://www.w3.org/1999/xlink">
<g>
<g transform="translate(267, 10)">
<path d="M2.0039,65.0002 C1.8679,64.8882 1.6959,64.8002 1.6069,64.6592 C1.4839,64.4672 1.3579,64.2322 1.3669,64.0212 C1.3719,63.9302 1.7029,63.8052 1.8969,63.7772 C2.6899,63.6672 3.4869,63.5952 4.2809,63.4942 C5.1429,63.3862 5.8779,62.9602 6.1169,62.1442 C6.5309,60.7302 6.9839,59.2792 7.0589,57.8252 C7.2759,53.5572 7.3909,49.2782 7.4109,45.0042 C7.4569,34.8892 7.4399,24.7722 7.4169,14.6562 C7.4109,11.8902 7.3159,9.1242 7.2229,6.3582 C7.2019,5.7262 7.0749,5.0842 6.9119,4.4712 C6.5389,3.0672 5.5239,2.2782 4.1709,1.9792 C3.1289,1.7492 2.0509,1.6612 0.9839,1.5662 C0.1659,1.4942 -0.0921,1.2232 0.0289,0.4342 C1.3799,0.4342 2.7239,0.4402 4.0669,0.4332 C9.1459,0.4042 14.2229,0.3762 19.3009,0.3392 C24.8949,0.2972 30.4479,0.5192 35.8559,2.2192 C41.9529,4.1372 45.1689,10.1482 45.4539,14.6022 C45.8039,20.0602 44.0729,24.8862 40.8509,29.1792 C39.3199,31.2182 37.4829,33.0262 35.7749,34.9322 C35.6099,35.1162 35.3889,35.2502 35.1489,35.4432 C36.0389,36.5902 36.8509,37.6582 37.6879,38.7072 C41.6959,43.7322 45.6539,48.8002 49.7539,53.7502 C51.5249,55.8912 53.4929,57.8962 55.5499,59.7702 C58.6149,62.5622 62.3259,63.8472 66.4859,63.7622 C66.9579,63.7522 67.2799,63.8642 67.4389,64.4212 C67.0789,64.6092 66.7059,64.8052 66.3329,65.0002 L56.0249,65.0002 C55.0369,64.8352 54.0389,64.7172 53.0649,64.4982 C50.0539,63.8222 47.6769,62.0632 45.7749,59.7582 C42.6919,56.0212 39.7249,52.1852 36.7879,48.3302 C34.3219,45.0942 31.9699,41.7712 29.5689,38.4842 C29.2179,38.0032 28.8179,37.6572 28.1639,37.6512 C23.8399,37.6122 19.5149,37.5652 15.1919,37.4932 C14.5299,37.4822 14.2999,37.7032 14.3089,38.3582 C14.3849,44.3052 14.3989,50.2522 14.5309,56.1962 C14.5669,57.8262 14.8539,59.4662 15.1869,61.0682 C15.4609,62.3902 16.4109,63.1942 17.7729,63.3822 C18.9939,63.5502 20.2279,63.6272 21.4519,63.7722 C21.8159,63.8162 22.4109,63.5342 22.4539,64.1402 C22.4739,64.4092 22.0299,64.7122 21.7969,65.0002 L2.0039,65.0002 Z M14.3169,18.5712 C14.3169,22.8042 14.3179,27.0382 14.3169,31.2712 C14.3169,33.5382 14.4579,33.7152 16.6899,34.2382 C16.7109,34.2432 16.7339,34.2432 16.7569,34.2482 C20.8069,35.1242 24.8749,35.0662 28.9739,34.6252 C32.5199,34.2442 34.9349,32.4402 36.4259,29.2622 C38.0629,25.7732 38.5739,22.0952 38.1779,18.3042 C37.5019,11.8602 34.1089,7.3342 28.2309,4.6682 C24.0879,2.7912 19.7509,2.8452 15.3739,3.5192 C14.5109,3.6522 14.3169,3.9762 14.3169,4.9112 C14.3169,9.4642 14.3169,14.0182 14.3169,18.5712 L14.3169,18.5712 Z" fill="#000000"></path>
</g>
<g transform="translate(340, 10)">
<path d="M0.4814,65.0002 C0.4324,63.7102 0.4654,63.7142 1.7264,63.6322 C2.8394,63.5602 3.9734,63.5032 5.0494,63.2412 C7.0334,62.7572 7.9134,61.5362 8.0434,59.2712 C8.1444,57.5142 8.2274,55.7522 8.2284,53.9932 C8.2434,39.7352 8.2484,25.4782 8.2234,11.2202 C8.2204,9.2582 8.1274,7.2882 7.9224,5.3372 C7.6794,3.0162 6.3494,2.1492 4.0424,1.8142 C3.0944,1.6772 2.1264,1.6952 1.1674,1.6342 C0.2644,1.5762 0.0874,1.3542 0.1764,0.3102 C1.4604,0.3102 2.7554,0.3042 4.0504,0.3112 C6.8214,0.3242 9.5914,0.3422 12.3624,0.3612 C17.4204,0.3952 22.4814,0.3632 27.5394,0.4822 C33.0084,0.6102 38.3764,1.3522 43.4354,3.6282 C50.9544,7.0132 55.8564,12.6872 58.3354,20.5072 C59.0984,22.9092 59.6554,25.3532 59.8774,27.8672 C59.8944,28.0672 59.9584,28.2632 60.0004,28.4612 L60.0004,34.2302 C59.9584,34.4302 59.9094,34.6272 59.8754,34.8272 C59.5444,36.7372 59.3394,38.6792 58.8664,40.5532 C57.1884,47.1822 54.2244,53.0612 48.8444,57.5442 C44.0894,61.5072 38.6844,63.8812 32.5434,64.5862 C31.1144,64.7502 29.6794,64.8632 28.2474,65.0002 L0.4814,65.0002 Z M14.9944,32.6142 L15.0294,32.6142 C15.0294,40.6032 15.0284,48.5912 15.0314,56.5792 C15.0324,57.6322 15.0414,58.6852 15.0734,59.7362 C15.1024,60.6872 15.3074,60.8672 16.1714,61.2222 C17.5174,61.7722 18.9314,61.8052 20.3434,61.9062 C24.6964,62.2202 29.0484,62.2472 33.3234,61.2862 C41.8314,59.3712 47.9504,54.5802 50.8254,46.1642 C53.0144,39.7562 53.2584,33.1582 52.1834,26.5212 C50.5084,16.1802 44.3724,9.3312 34.9814,5.2282 C31.0004,3.4882 26.7114,3.1482 22.4004,3.2932 C20.3284,3.3632 18.2334,3.3082 16.2354,4.0452 C15.2914,4.3942 15.0864,4.6002 15.0754,5.6302 C15.0374,8.9702 15.0044,12.3122 14.9984,15.6532 C14.9854,21.3072 14.9944,26.9602 14.9944,32.6142 L14.9944,32.6142 Z" fill="#000000"></path>
</g>
<g transform="translate(138, 10)">
<path d="M0.9692,65.0002 C0.0432,64.3322 -0.1178,63.7632 0.5612,62.8122 C2.6752,59.8542 4.7842,56.8892 6.9932,54.0012 C14.4192,44.2982 21.9542,34.6782 29.3142,24.9262 C34.3432,18.2632 39.1502,11.4322 44.0542,4.6752 C44.1842,4.4972 44.2952,4.3042 44.4992,3.9872 C44.1242,3.9872 43.8632,3.9852 43.6022,3.9882 C35.9542,4.0462 28.3052,4.0762 20.6582,4.1822 C18.0782,4.2172 15.5032,4.3812 12.9542,4.9252 C10.3872,5.4732 8.4062,6.7912 7.0222,8.9892 C6.3902,9.9912 5.8712,11.0642 5.2942,12.1012 C4.9182,12.7752 4.5282,13.4412 4.1262,14.1432 C3.4892,13.7342 3.3952,13.1862 3.4852,12.6062 C3.9902,9.3572 4.5042,6.1082 5.0372,2.8632 C5.1552,2.1482 5.3122,1.4292 5.5492,0.7462 C5.7192,0.2562 6.0442,-0.0138 6.7122,0.1382 C7.6172,0.3442 8.5722,0.4082 9.5052,0.4102 C21.0272,0.4362 32.5482,0.4382 44.0702,0.4482 C46.4982,0.4502 48.9272,0.4372 51.3542,0.4812 C51.8232,0.4902 52.4722,0.5982 52.7112,0.9102 C53.0682,1.3792 52.6612,1.9322 52.3392,2.3952 C42.4792,16.5422 32.6412,30.7052 22.7592,44.8362 C19.0622,50.1212 15.2622,55.3352 11.5112,60.5812 C11.3942,60.7442 11.2862,60.9122 11.1072,61.1772 C11.7142,61.1772 12.2232,61.1792 12.7332,61.1772 C16.2822,61.1632 19.8332,61.1572 23.3832,61.1332 C27.5502,61.1042 31.7202,61.1402 35.8832,60.9892 C37.9962,60.9132 40.1192,60.6042 42.1982,60.1992 C46.4092,59.3792 48.6262,56.5632 49.5022,52.5192 C49.5642,52.2322 49.6552,51.9462 49.7752,51.6792 C50.0642,51.0362 50.5322,50.7312 51.3382,50.9982 C51.1782,52.0172 51.0372,53.0492 50.8522,54.0732 C50.3092,57.0832 49.7622,60.0922 49.1852,63.0952 C49.0302,63.9072 48.7142,64.6652 47.8422,65.0002 L0.9692,65.0002 Z" fill="#000000"></path>
</g>
<g>
<path d="M22.2681,0.0002 C22.4601,0.8962 22.1981,1.2412 21.2731,1.3322 C20.3641,1.4222 19.4491,1.4822 18.5491,1.6312 C17.0601,1.8762 16.0581,2.7702 15.8251,4.2472 C15.5701,5.8652 15.4101,7.5162 15.4041,9.1532 C15.3531,24.0782 15.3151,39.0022 15.3461,53.9272 C15.3531,57.3522 15.5991,60.7802 15.8251,64.2012 C15.8991,65.3282 16.2171,66.4462 16.5031,67.5482 C16.7881,68.6472 17.5141,69.4142 18.6461,69.6372 C20.5021,70.0032 22.3631,70.4052 24.2421,70.5932 C30.5611,71.2262 36.9081,71.2092 43.2471,71.1022 C45.5881,71.0622 47.9471,70.7612 50.2531,70.3372 C53.6571,69.7102 55.8121,67.5382 56.9141,64.2992 C57.1351,63.6522 57.2601,62.9742 57.4751,62.3252 C57.8341,61.2402 58.2391,60.7592 59.2561,61.1072 C59.1131,62.0112 58.9791,62.9302 58.8191,63.8462 C58.3201,66.7022 57.8141,69.5582 57.3021,72.4122 C57.2371,72.7712 57.1091,73.1162 57.0221,73.4712 C56.8521,74.1692 56.5111,74.7272 55.8081,75.0002 L1.5121,75.0002 C1.2761,74.8262 1.0011,74.6862 0.8171,74.4682 C0.6731,74.2992 0.5911,74.0352 0.5891,73.8132 C0.5881,73.7322 0.8981,73.6092 1.0791,73.5782 C1.6191,73.4842 2.1631,73.3962 2.7091,73.3612 C4.6521,73.2362 5.8731,72.1842 6.5171,70.4112 C6.7411,69.7932 6.9791,69.1452 7.0151,68.5002 C7.2061,65.1242 7.4551,61.7452 7.4631,58.3672 C7.4971,42.6742 7.4641,26.9792 7.4401,11.2852 C7.4371,9.5032 7.3651,7.7202 7.2891,5.9392 C7.1771,3.3412 6.1091,2.0622 3.6191,1.5502 C2.9961,1.4222 2.3481,1.3732 1.7101,1.3642 C1.0731,1.3542 0.4901,1.2592 0.0001,0.8242 L0.0001,0.0002 L2.6121,0.0002 C2.7231,0.0242 2.8331,0.0682 2.9451,0.0702 C7.1251,0.1142 11.3051,0.1742 15.4851,0.1832 C17.0131,0.1862 18.5411,0.0642 20.0691,0.0002 L22.2681,0.0002 Z" fill="#000000"></path>
</g>
<g transform="translate(64, 8)">
<path d="M1.4297,67.0002 C0.9927,66.6862 0.2017,66.6922 0.3707,65.7682 C1.1147,65.7242 1.8627,65.6482 2.6107,65.6412 C5.3877,65.6102 7.5587,64.4152 8.9127,62.0392 C9.9127,60.2842 10.7117,58.3972 11.4367,56.5072 C18.4847,38.1392 25.4987,19.7582 32.5267,1.3822 C32.6767,0.9902 32.8797,0.6202 33.1457,0.0512 C33.3687,0.4612 33.5127,0.6752 33.6087,0.9082 C40.9937,18.7522 48.3737,36.5992 55.7587,54.4432 C56.8247,57.0202 57.9397,59.5652 59.5357,61.8832 C61.1437,64.2162 63.3207,65.4582 66.1317,65.6412 C66.6797,65.6762 67.2277,65.7242 67.7697,65.8012 C67.9227,65.8232 68.1397,65.9462 68.1757,66.0672 C68.2087,66.1812 68.0767,66.4072 67.9537,66.4882 C67.6547,66.6882 67.3177,66.8332 66.9967,67.0002 L50.9137,67.0002 C50.7747,66.9452 50.6127,66.9192 50.5007,66.8302 C50.2537,66.6322 49.9317,66.4362 49.8427,66.1712 C49.7977,66.0382 50.1997,65.7602 50.3917,65.5402 C50.6217,65.2772 51.0087,65.0212 51.0337,64.7372 C51.0837,64.1702 51.0477,63.5412 50.8477,63.0142 C48.1057,55.7772 45.3257,48.5552 42.5727,41.3232 C42.4117,40.9012 42.2377,40.7292 41.7557,40.7292 C35.4807,40.7152 29.2057,40.6862 22.9307,40.6282 C22.3617,40.6232 22.1447,40.8212 21.9727,41.3222 C20.2307,46.3962 18.4657,51.4612 16.7087,56.5292 C16.0057,58.5602 15.3157,60.5952 15.2607,62.7742 C15.2237,64.2002 15.7617,65.0202 17.1127,65.4582 C17.6907,65.6462 18.3217,65.6822 18.9307,65.7642 C19.4147,65.8292 19.9027,65.8602 20.3887,65.9062 L20.4907,66.1262 C20.1847,66.4172 19.8797,66.7092 19.5737,67.0002 L1.4297,67.0002 Z M41.2057,37.4672 C38.1757,28.8762 35.1777,20.3772 32.1797,11.8782 C32.1307,11.8782 32.0817,11.8772 32.0327,11.8772 C29.0727,20.3912 26.1127,28.9042 23.1357,37.4672 L41.2057,37.4672 Z" fill="#000000"></path>
</g>
<g transform="translate(194, 8)">
<path d="M1.4639,67.0002 C1.0939,66.6552 0.2879,66.6562 0.5399,65.7642 C1.2799,65.7212 2.0279,65.6532 2.7769,65.6392 C5.4279,65.5882 7.4629,64.4532 8.9399,62.2562 C10.2309,60.3362 10.9489,58.1632 11.7649,56.0332 C18.7719,37.7212 25.7729,19.4062 32.7789,1.0942 C32.8949,0.7932 33.0769,0.5202 33.3109,0.0762 C33.5189,0.4642 33.6519,0.6672 33.7419,0.8862 C41.3019,19.1522 48.8569,37.4192 56.4169,55.6852 C57.3619,57.9682 58.4429,60.1762 59.9009,62.1942 C61.4579,64.3502 63.5659,65.4272 66.1719,65.6352 C66.7409,65.6812 67.3139,65.7172 67.8779,65.8012 C68.0459,65.8252 68.2359,65.9722 68.3249,66.1172 C68.3619,66.1782 68.1899,66.4282 68.0599,66.5152 C67.7799,66.7032 67.4679,66.8412 67.1689,67.0002 L51.2239,67.0002 C51.0059,66.9382 50.7599,66.9212 50.5769,66.8052 C50.3239,66.6452 50.1189,66.4102 49.8929,66.2072 C50.0939,65.9892 50.3099,65.7842 50.4909,65.5522 C50.7549,65.2132 51.1229,64.8842 51.2089,64.4982 C51.3009,64.0842 51.1979,63.5782 51.0419,63.1652 C48.2619,55.8472 45.4579,48.5372 42.6689,41.2232 C42.5369,40.8772 42.3749,40.7332 41.9819,40.7322 C35.6379,40.7132 29.2949,40.6822 22.9529,40.6322 C22.4739,40.6282 22.2879,40.7892 22.1369,41.2292 C20.4409,46.1722 18.7199,51.1062 17.0059,56.0432 C16.2939,58.0932 15.6099,60.1472 15.3839,62.3262 C15.2059,64.0272 15.8169,65.0552 17.4639,65.5212 C18.0509,65.6862 18.6799,65.6982 19.2909,65.7742 C19.7079,65.8272 20.1269,65.8692 20.5449,65.9162 L20.6559,66.1672 C20.3069,66.4452 19.9579,66.7232 19.6089,67.0002 L1.4639,67.0002 Z M41.3369,37.4662 C38.3089,28.8802 35.3099,20.3772 32.3109,11.8752 C32.2609,11.8792 32.2109,11.8822 32.1609,11.8862 C29.2029,20.3942 26.2449,28.9002 23.2669,37.4662 L41.3369,37.4662 Z" fill="#000000"></path>
</g>
</g>
</svg>