<?xml version="1.0" encoding="UTF-8"?>
<svg width="500px" height="250px" viewBox="0 0 500 250" version="1.1" xmlns="http://www.w3.org/2000/svg" xmlns:xlink="http://www.w3.org/1999/xlink">
<g>
<path d="M50.3840207,50.3341166 C50.3785296,65.5542309 50.3840207,80.777088 50.3812752,95.9999451 L96.0951251,95.9999451 L96.0951251,50.3313737 C80.8571751,50.3313737 65.6192251,50.3286309 50.3840207,50.3341166 L50.3840207,50.3341166 Z M-5.49115314e-05,50.3286309 L-5.49115314e-05,95.9999451 L45.713795,95.9999451 C45.713795,80.777088 45.7165406,65.5569737 45.713795,50.3341166 C30.475845,50.3261623 15.2378951,50.3341166 -5.49115314e-05,50.3286309 L-5.49115314e-05,50.3286309 Z M196.440458,35.5309166 C196.448694,49.289088 196.437712,63.0445166 196.445949,76.7999451 L206.261385,76.7999451 C206.275113,63.0500023 206.23942,49.2975909 206.277858,35.5473737 C202.99964,35.484288 199.718676,35.5172023 196.440458,35.5309166 L196.440458,35.5309166 Z M267.377919,36.1508023 C264.898938,37.5524023 263.325448,40.0484023 262.268401,42.6184594 C262.276638,40.2541166 262.26291,37.8925166 262.276638,35.5309166 C259.02313,35.5144594 255.769896,35.4980023 252.516113,35.5391451 C252.535333,49.2918309 252.516113,63.0475337 252.52435,76.7999451 L262.271147,76.7999451 C262.273893,70.2198309 262.271147,63.6397166 262.271147,57.0598766 C262.191525,54.2018194 262.427919,51.2447451 263.679628,48.6308023 C264.83277,46.1622309 267.056687,44.009088 269.862941,43.6909166 C272.163734,43.4577737 274.59604,43.9981166 276.5454,45.2598309 C276.553911,41.9656594 276.539908,38.671488 276.553911,35.3773166 C273.574686,34.3761737 270.107023,34.5133166 267.377919,36.1508023 L267.377919,36.1508023 Z M387.716815,51.5217737 C387.214375,49.0479909 386.118615,46.5901166 384.139054,44.949888 C381.992013,43.0655451 379.010317,42.4209737 376.218066,42.6157166 C373.483746,42.7693166 370.770842,43.9460023 369.002691,46.0744594 C367.064314,48.3537737 366.232678,51.362688 366.007267,54.2948023 C365.774167,57.3229166 366.007267,60.4580023 367.179628,63.2886309 C368.154582,65.6642194 370.004826,67.7293166 372.393478,68.7389623 C374.606687,69.6904594 377.099671,69.8605166 379.466083,69.506688 C381.670781,69.1833051 383.80684,68.1297737 385.242776,66.4017737 C386.66773,64.6822766 387.420293,62.5151451 387.798908,60.3428023 C388.276638,57.4271451 388.282129,54.4237166 387.716815,51.5217737 L387.716815,51.5217737 Z M396.716541,46.3487451 C397.905375,49.4838309 398.322977,52.8685166 398.254338,56.2065737 C398.262575,61.193088 396.914497,66.3112594 393.781519,70.2664594 C390.849518,74.095488 386.362971,76.5832594 381.626852,77.3649737 C376.995064,78.1137737 372.102721,77.9190309 367.701287,76.188288 C363.242471,74.4356023 359.535943,70.8589166 357.657968,66.4541623 C355.700372,61.9638309 355.494454,56.911488 356.103972,52.1142309 C356.743691,47.3169737 358.918188,42.626688 362.624716,39.4367451 C365.661599,36.7734309 369.5713,35.2648594 373.549365,34.754688 C378.483167,34.1430309 383.721727,34.4749166 388.224472,36.7460023 C392.150647,38.7071451 395.195491,42.2509166 396.716541,46.3487451 L396.716541,46.3487451 Z M344.827889,54.2975451 C341.923344,52.6189166 338.578957,51.8237623 335.775723,49.9503909 C334.136614,48.910848 333.672886,46.6340023 334.342532,44.8977737 C335.185699,43.1423451 337.217151,42.3606309 339.064924,42.2893166 C342.733289,42.1604023 346.425815,43.2767451 349.448694,45.353088 C349.445949,42.3277166 349.451714,39.3023451 349.445949,36.2742309 C345.11892,34.6367451 340.333655,34.0470309 335.761995,34.850688 C331.898969,35.5391451 328.107328,37.5441737 325.924594,40.8877166 C324.013673,43.7567451 323.766846,47.4568594 324.557572,50.7400594 C325.089939,52.9675337 326.451745,54.9421166 328.250372,56.3437166 C330.808975,58.3051337 333.870567,59.3992594 336.78335,60.7076023 C338.3346,61.4372023 339.979475,62.1805166 341.099671,63.5300023 C342.296467,65.2799451 341.934326,68.1407451 339.919073,69.141888 C337.812941,70.1512594 335.35565,70.1348023 333.09604,69.7675337 C329.850769,69.2079909 326.78396,67.8280594 324.126242,65.8998309 C324.090549,69.0818194 324.123771,72.2632594 324.110043,75.4479909 C327.269927,76.8520594 330.724137,77.5295451 334.161324,77.7517166 C339.001775,77.9327451 344.265046,76.9894766 347.919408,73.577088 C351.746742,70.197888 352.669256,64.2102309 350.492288,59.6790309 C349.33338,57.2598309 347.114954,55.5812023 344.827889,54.2975451 L344.827889,54.2975451 Z M309.37975,54.0150309 C309.135394,50.9103909 308.251318,47.6543451 305.967273,45.410688 C303.83094,43.2520594 300.668035,42.4127451 297.697596,42.607488 C295.33338,42.7391451 292.944728,43.5373166 291.193051,45.1720594 C288.776943,47.3581166 287.673221,50.6166309 287.373954,53.7846309 C287.044759,57.2680594 287.28335,60.9407451 288.876059,64.1169737 C290.114039,66.5828023 292.390122,68.5192594 295.07255,69.2241737 C297.708578,69.9071451 300.577431,69.8495451 303.131092,68.8703451 C305.313551,68.0200594 307.043539,66.2262309 307.987743,64.1032594 C309.415442,60.9547337 309.555467,57.4137051 309.37975,54.0150309 L309.37975,54.0150309 Z M317.536858,45.1556023 C319.368157,49.2150309 319.812941,53.7736594 319.502691,58.1759451 C319.197932,62.4740023 317.847108,66.780288 315.156443,70.1951451 C312.40263,73.8212023 308.251318,76.2788023 303.806504,77.1921737 C300.006351,77.9821166 296.030757,77.9793737 292.230879,77.1812023 C287.684478,76.2102309 283.475509,73.5743451 280.80928,69.7398309 C277.679323,65.2964023 276.789756,59.6461166 277.187865,54.3222309 C277.456931,49.8047451 278.862666,45.2516023 281.751013,41.7078309 C284.913917,37.7389166 289.765351,35.3965166 294.748572,34.7684023 C299.493203,34.1649737 304.498115,34.4337737 308.90202,36.4360594 C312.723862,38.1585737 315.820872,41.3430309 317.536858,45.1556023 L317.536858,45.1556023 Z M242.45083,35.522688 C237.682038,34.1759451 232.536553,34.121088 227.765015,35.4788023 C223.385546,36.7405166 219.366022,39.4257737 216.796162,43.2191451 C213.729353,47.6653166 212.644851,53.2198766 212.886461,58.543488 C213.125326,63.6646766 215.146071,68.777088 218.869073,72.3622766 C222.295552,75.6866194 227.015198,77.4774309 231.748572,77.7270309 C236.374869,77.954688 241.220811,77.3348023 245.2623,74.9323337 C245.226608,71.950848 245.268066,68.969088 245.240336,65.9876023 C242.635058,67.8911451 239.592959,69.2543451 236.369378,69.6246309 C233.107907,69.871488 229.612514,69.0870309 227.11953,66.8735451 C224.719896,64.8303909 223.443203,61.749888 223.124716,58.6669166 C222.699152,54.728448 223.270232,50.4523337 225.743996,47.2319451 C227.668646,44.6344594 230.738475,42.9668023 233.956016,42.6760594 C238.008487,42.165888 242.052996,43.7073737 245.240336,46.140288 C245.270537,42.991488 245.215625,39.842688 245.270537,36.6966309 C244.386736,36.1782309 243.433746,35.7969737 242.45083,35.522688 L242.45083,35.522688 Z M173.35565,19.2328594 C167.642105,33.4381166 161.802538,47.5885166 156.04479,61.7745737 C154.844973,58.9576594 153.774198,56.0861623 152.629292,53.2470309 C148.148511,41.8943451 143.640275,30.5526309 139.164985,19.1999451 L124.7864,19.1999451 C124.780909,38.3999451 124.783655,57.5999451 124.7864,76.7999451 C127.921849,76.7972023 131.060043,76.8054309 134.198511,76.7972023 C134.19,68.2013623 134.198511,59.6049737 134.195491,51.0088594 C134.228438,44.8017737 134.126852,38.5892023 134.247657,32.3821166 C134.42612,32.6646309 134.590854,32.9581166 134.744606,33.2598309 C140.609158,47.772288 146.42978,62.306688 152.324533,76.808448 C154.693966,76.7697737 157.063398,76.8493166 159.430085,76.764288 C165.110683,62.249088 170.934051,47.7887451 176.647596,33.2872594 C176.798603,32.969088 176.971574,32.661888 177.166785,32.3656594 C177.210439,33.0020023 177.232404,33.6383451 177.226913,34.274688 C177.207694,48.444288 177.246406,62.6111451 177.210439,76.7780023 C180.535333,76.8246309 183.860226,76.7889737 187.188139,76.7972023 C187.185119,57.5999451 187.179628,38.402688 187.19061,19.2054309 C182.578041,19.2164023 177.965473,19.1588023 173.35565,19.2328594 L173.35565,19.2328594 Z M200.556077,17.9766309 C197.8105,18.2893166 195.468523,20.7825737 195.542654,23.580288 C195.42734,26.2381166 197.566144,28.6216594 200.133258,29.0824594 C202.607023,29.6228023 205.446223,28.5777737 206.714405,26.3286309 C207.862056,24.3345737 207.576516,21.6191451 206.028011,19.913088 C204.707389,18.3551451 202.549365,17.6749166 200.556077,17.9766309 L200.556077,17.9766309 Z M440.217456,35.5391451 C440.143325,31.4166309 440.209219,27.2941166 440.181763,23.1743451 C436.920293,24.156288 433.677492,25.2013166 430.399549,26.133888 C430.319927,29.2607451 430.393783,32.3903451 430.35809,35.5172023 C425.537132,35.5144594 420.715625,35.522688 415.894667,35.5117166 C415.954796,33.0486309 415.724167,30.5663451 416.078347,28.1169737 C416.372123,26.1860023 417.492318,24.2550309 419.375784,23.5089737 C421.750982,22.5352594 424.405955,23.1825737 426.662544,24.175488 C426.648816,21.353088 426.684509,18.530688 426.643325,15.7110309 C421.893478,14.4054309 416.448999,14.6605166 412.234539,17.4006309 C409.516419,19.1396023 407.545095,21.9208594 406.658273,25.0038309 C405.609738,28.418688 406.144851,32.0255451 405.97737,35.5309166 C403.690305,35.5144594 401.405985,35.4925166 399.124411,35.5446309 C399.149121,38.1832594 399.138139,40.821888 399.129902,43.4577737 C401.422733,43.5044023 403.717761,43.4495451 406.010592,43.4934309 C405.991098,54.5965166 406.004826,65.6968594 406.004826,76.7999451 L415.891647,76.7999451 C415.891647,65.6941166 415.888902,54.588288 415.894667,43.4824594 C420.715625,43.4742309 425.539603,43.4769737 430.363856,43.4797166 C430.377584,50.5590309 430.349854,57.6356023 430.374564,64.7121737 C430.418493,68.009088 430.981611,71.5336594 433.166815,74.1366309 C435.058517,76.4406309 438.062178,77.4941623 440.961507,77.7078309 C444.017334,77.9245166 447.174747,77.551488 449.999945,76.3254309 L449.999945,68.2257737 C447.83396,69.6740023 444.841007,70.2500023 442.482556,68.930688 C441.074076,68.1547337 440.527706,66.492288 440.346498,64.9919451 C440.04723,62.4465737 440.236675,59.8792594 440.184509,57.3256594 C440.181763,52.7121737 440.19302,48.1014309 440.179292,43.490688 C443.45202,43.5016594 446.727218,43.4029166 449.999945,43.5373166 L449.999945,35.5172023 C446.7382,35.5281737 443.476455,35.4925166 440.217456,35.5391451 L440.217456,35.5391451 Z M50.3812752,-5.48571429e-05 C50.3812752,15.2228023 50.3785296,30.4456594 50.3840207,45.6685166 C65.6192251,45.6685166 80.8571751,45.6657737 96.0923795,45.6685166 C96.0978707,30.4456594 96.0951251,15.2228023 96.0951251,-5.48571429e-05 L50.3812752,-5.48571429e-05 Z M-5.49115314e-05,-5.48571429e-05 L45.713795,-5.48571429e-05 C45.7110494,15.2228023 45.713795,30.4456594 45.7110494,45.6685166 L-5.49115314e-05,45.6685166 L-5.49115314e-05,-5.48571429e-05 Z" fill="#000000"></path>
</g>
</svg>