<?xml version="1.0" encoding="UTF-8"?>
<svg width="500px" height="250px" viewBox="0 0 500 250" version="1.1" xmlns="http://www.w3.org/2000/svg" xmlns:xlink="http://www.w3.org/1999/xlink">
<g>
<path d="M31.2713,15.9199 C34.3733,1.0759 59.2093,-2.7781 76.6313,1.9999 C78.5813,2.5349 81.7353,2.8059 81.9113,5.3599 C77.7053,6.3109 73.4423,3.3089 67.9913,3.9199 C67.0253,3.5209 64.3973,3.5209 63.4313,3.9199 C51.8773,4.9679 36.3593,8.5439 39.6713,23.1199 C40.1163,25.0769 41.0703,26.8139 40.6313,28.8799 C39.9323,32.1679 32.6513,36.2579 29.5913,38.9599 C18.4653,48.7839 10.2903,62.0459 8.9513,80.9599 C8.5523,82.0049 8.5523,84.7139 8.9513,85.7599 C10.1203,104.4309 16.2293,118.1619 25.7513,128.4799 C26.4513,129.3799 27.2503,130.1799 28.1513,130.8789 C36.6293,138.5619 46.9493,144.4009 62.4713,145.0399 C63.9953,145.4389 67.1883,145.4389 68.7113,145.0399 C73.9393,144.8839 78.0963,144.1349 81.9113,142.8789 C85.6883,141.6369 88.6003,139.1269 92.7113,138.5599 C91.7753,141.9789 87.7013,143.5359 84.5513,144.7999 C74.6733,148.7649 59.8293,150.3469 47.3513,147.6799 C32.5273,144.5099 20.4583,135.8169 13.0313,124.8789 C5.5513,113.8639 -0.7457,98.0449 0.0713,80.4799 C0.8933,62.8099 7.7163,50.6289 16.8713,40.1599 C18.2613,38.6699 19.7023,37.2309 21.1913,35.8399 C25.4973,31.1069 35.0893,28.1769 31.2713,18.3199 L31.2713,15.9199 Z" fill="#000000"></path>
<path d="M44.4715,45.8959 C49.6525,46.9649 58.6655,46.6159 67.7515,46.6159 C76.5685,46.6159 85.0335,47.2539 91.0315,45.6559 L91.2715,45.6559 L91.2715,70.1359 L91.0315,70.1359 L82.6315,70.1359 C82.4275,70.1799 82.4055,70.0419 82.3915,69.8959 C82.2335,68.2929 82.7075,66.0589 82.1515,64.8559 C81.8495,60.6779 81.2065,56.8399 78.3115,55.2559 C77.6645,54.7029 75.9965,55.1709 74.9515,55.0159 C74.5515,71.1759 74.5515,89.0149 74.9515,105.1759 C75.4005,107.6859 77.9255,108.1229 80.2315,108.7759 L80.2315,115.4969 L80.2315,115.7359 C72.0715,115.5759 63.2715,116.0549 55.5115,115.4969 L55.5115,108.7759 C55.8515,108.7969 56.1905,108.8149 56.2315,108.5359 C58.3535,108.0979 60.2825,107.4679 60.7915,105.4169 C61.3515,89.0959 60.8715,71.7359 61.0315,55.0159 C59.9865,55.1709 58.3185,54.7029 57.6715,55.2559 C54.3505,56.8149 53.8485,61.1929 53.5915,65.8159 C53.0355,66.7009 53.5075,68.6119 53.3515,69.8959 L53.3515,70.1359 L44.7115,70.1359 C44.5075,70.1799 44.4845,70.0419 44.4715,69.8959 L44.4715,45.8959 Z M46.3915,47.8159 C45.9915,50.5369 45.9915,54.9339 46.3915,57.6559 C46.5925,57.3769 46.7075,57.0129 46.6315,56.4559 C46.8985,53.9229 46.8235,51.0479 47.3515,48.7759 C48.1235,48.7229 48.3675,49.1999 49.2715,49.0159 C61.2715,49.4159 74.9515,49.4159 86.9515,49.0159 C88.2755,48.8999 89.6175,48.8019 90.0715,47.8159 C88.6805,47.7839 87.8035,48.2679 86.4715,48.2959 L49.9915,48.2959 C48.6005,48.3269 47.7235,47.8429 46.3915,47.8159 L46.3915,47.8159 Z M63.9115,55.2559 C62.2735,54.2379 62.8255,56.2189 62.7115,57.6559 C62.0165,66.4109 63.0615,77.8529 62.9515,84.7759 C63.4835,83.2279 63.0515,80.7159 63.1915,78.7759 L63.1915,76.8549 C63.7455,76.0509 63.2755,74.2199 63.4315,73.0159 L63.4315,69.1759 C63.9855,68.3699 63.5155,66.5399 63.6715,65.3359 L63.6715,61.2559 C64.2255,60.4499 63.7555,58.6199 63.9115,57.4159 L63.9115,55.2559 Z M82.8715,57.8959 C82.3465,56.9009 81.9105,55.8169 80.9515,55.2559 C81.4695,56.3379 82.0715,57.3349 82.6315,58.3759 C83.3395,60.7879 83.9135,63.3329 84.0715,66.2959 L84.0715,68.9359 C84.4305,68.8949 84.9565,69.0209 85.0315,68.6959 C85.2275,64.1799 84.4195,60.6679 82.8715,57.8959 L82.8715,57.8959 Z M57.4315,113.5759 C57.1625,110.1069 60.5895,110.3339 61.5115,108.0549 C60.1385,108.8429 58.9005,109.7639 57.1915,110.2159 C56.7925,111.0229 56.7925,113.4879 57.1915,114.2959 C57.2045,113.9889 57.4985,113.9639 57.4315,113.5759 L57.4315,113.5759 Z" fill="#000000"></path>
<g transform="translate(319, 45)">
<path d="M0.9911,32.8398 C1.9781,16.1108 5.3871,1.0448 20.9111,0.9208 C22.9111,0.9038 25.0621,1.1578 26.6731,1.6388 C29.3411,2.4388 32.3051,5.5278 34.5931,2.1188 L41.5531,2.1188 L41.7911,2.1188 C41.6351,9.1608 42.1091,16.8378 41.5531,23.4808 L32.4311,23.4808 C32.2761,22.4338 32.7441,20.7668 32.1911,20.1188 C32.6781,12.6828 26.1691,5.4958 20.1911,10.2798 C16.8561,12.9488 16.6351,18.3048 16.3511,24.4408 C15.7931,26.4418 16.2701,29.4788 16.1111,31.8788 L16.1111,43.1588 C16.2691,44.8428 15.7951,47.1558 16.3511,48.4408 C14.9881,58.0248 22.3941,68.1108 30.0311,60.1988 L30.0311,48.4408 C28.8031,46.3898 25.2101,46.6998 25.2311,43.4008 L25.2311,35.4808 L42.9911,35.4808 C43.1511,41.9598 42.6731,49.0788 43.2311,55.1588 C44.5781,57.4128 46.2691,60.6008 45.1511,64.5208 C43.0511,66.6478 39.7311,67.8438 36.5121,68.8398 C33.2771,69.8398 29.5011,70.3498 25.7131,70.7608 L22.1111,70.7608 C5.8601,69.9708 1.0971,57.6938 0.9911,40.7608 L0.9911,32.8398 Z M3.1511,32.3608 C4.4081,19.5358 7.3011,8.3468 16.3511,3.3198 C6.3851,6.5518 3.8531,17.2208 2.9111,29.4808 C2.3571,30.2048 2.8271,31.9548 2.6731,33.0788 C2.5381,34.3298 2.8271,38.1038 2.9111,34.9988 C3.4611,34.5888 2.9991,33.1668 3.1511,32.3608 L3.1511,32.3608 Z M35.0711,3.7998 C33.6761,5.6628 30.4991,5.6938 28.5931,4.2798 C31.5621,8.4448 35.3691,3.4008 39.8711,4.0408 C40.1561,3.1868 35.9561,3.4848 35.0711,3.7998 L35.0711,3.7998 Z M34.3511,21.5598 C35.0351,16.4178 33.2891,10.9388 30.0311,9.7998 C32.3111,12.0788 33.4641,15.4878 33.8711,19.6388 C33.9271,20.2408 33.6191,22.4298 34.3511,21.5598 L34.3511,21.5598 Z M27.1511,36.9188 C26.8831,37.7558 26.4731,40.7908 27.3911,41.2388 L27.3911,40.7608 C27.7951,39.8828 27.5121,38.3208 28.3511,37.8788 C31.3131,37.4018 35.1371,37.7838 37.7131,36.9188 L27.1511,36.9188 Z M31.9511,58.7608 C32.6831,55.3848 34.1671,48.5158 30.9911,46.7608 C31.1191,47.5928 31.6351,48.0368 31.7131,48.9188 C31.8711,52.1198 31.3921,55.9578 31.9511,58.7608 L31.9511,58.7608 Z" fill="#000000"></path>
</g>
<path d="M209.1112,74.456 C209.0972,57.562 216.1102,47.695 232.6322,47.336 L237.4312,47.336 C253.9692,47.677 260.9542,57.573 260.9512,74.456 L260.9512,86.456 C260.8562,103.241 254.5022,113.766 238.3912,114.536 L231.9112,114.536 C215.6322,113.857 209.2122,103.317 209.1112,86.456 L209.1112,74.456 Z M231.1912,49.256 C217.6842,49.989 211.2732,57.818 211.0312,71.816 C210.6322,77.017 210.6322,83.896 211.0312,89.096 C211.1792,89.747 210.7262,91 211.2712,91.255 C211.8262,90.581 211.3452,89.404 211.2712,88.616 C211.8282,87.332 211.3532,85.019 211.5112,83.335 L211.5112,80.216 C212.0642,79.569 211.5962,77.902 211.7522,76.856 L211.7522,73.976 C211.7852,58.569 218.9022,50.247 234.0712,49.976 L236.9512,49.976 C244.1042,49.783 249.5882,52.54 253.5112,54.776 C249.9052,51.662 245.4452,49.402 238.8712,49.256 C236.8692,48.857 233.1942,48.857 231.1912,49.256 L231.1912,49.256 Z M233.8312,55.976 C227.6962,56.241 226.6032,61.548 226.3912,67.736 C225.8362,68.86 226.3082,71.013 226.1512,72.536 L226.1512,88.856 C226.3082,90.378 225.8362,92.532 226.3912,93.656 C225.6322,101.993 230.8692,109.027 238.8712,105.656 C242.5732,104.096 243.4442,99.391 243.6732,93.896 C244.2182,93.564 243.7602,92.226 243.9112,91.496 L243.9112,84.536 C244.3112,82.134 244.3112,78.058 243.9112,75.656 C243.7042,66.904 245.0102,56.636 236.7132,55.976 C236.2982,55.578 234.2452,55.578 233.8312,55.976 L233.8312,55.976 Z M247.0312,67.256 C246.9352,62.792 245.3842,58.505 242.9512,57.176 C245.5372,59.951 245.7192,65.129 246.0712,70.136 L246.0712,72.776 L246.0712,88.856 L246.0712,91.496 C245.7572,97.74 245.1822,103.727 241.5112,106.616 C248.1382,102.683 247.1172,91.102 247.2712,80.696 L247.2712,78.295 L247.2712,71.816 C247.1142,70.373 247.5892,68.3 247.0312,67.256 L247.0312,67.256 Z" fill="#000000"></path>
<path d="M95.1116,48.5356 C103.1936,47.9776 112.3106,48.4546 120.7916,48.2956 C121.3316,50.2356 120.8866,53.1606 121.0316,55.4956 C118.6606,56.4046 115.6176,56.6416 115.2716,59.5756 C114.8716,72.2956 114.8716,86.6966 115.2716,99.4156 C115.4966,103.7506 118.2826,105.5256 122.2316,106.1356 C122.8026,106.5346 125.0206,106.5346 125.5916,106.1356 C129.6326,105.6176 132.2746,103.6986 132.3116,99.1756 C132.7116,86.6166 132.7116,72.3756 132.3116,59.8156 C132.1126,56.6556 128.9746,56.4326 126.5516,55.4956 L126.5516,48.5356 C133.9956,48.1366 143.1086,48.1366 150.5516,48.5356 L150.5516,55.4956 C148.1746,56.1586 145.9436,56.9686 144.7916,58.8556 C143.9666,71.2216 145.8916,87.6116 144.7916,99.4156 C143.8476,109.5446 135.1566,113.1186 124.8716,114.5356 L119.5916,114.5356 C109.3296,112.8836 101.6276,109.3176 100.8716,98.9356 C100.2906,90.9486 100.8716,78.3466 100.8716,68.9356 C100.8716,65.3346 101.4476,61.1876 100.8716,59.0956 C100.2786,56.9446 97.3876,56.2246 95.1116,55.4956 L95.1116,48.5356 Z M119.3516,49.9756 C112.3916,49.4156 104.3916,49.8956 97.0316,49.7356 C96.6566,50.3876 96.5256,55.0846 97.2716,53.8156 C97.4066,52.6716 97.5226,51.5066 97.9916,50.6956 L98.9516,50.6956 L102.0716,50.6956 C102.9586,50.5426 104.4626,51.0066 104.9516,50.4556 L108.0716,50.4556 L111.1916,50.4556 L114.3116,50.4556 C115.2776,50.3016 116.8636,50.7676 117.4316,50.2156 C117.9456,50.1506 119.9916,50.4016 119.3516,49.9756 L119.3516,49.9756 Z M128.4716,49.9756 C128.0726,50.8626 128.0726,53.4096 128.4716,54.2956 C128.5466,53.9716 128.8136,53.8376 128.7116,53.3356 C128.9946,52.4986 128.7516,51.1356 129.4316,50.6956 L130.1516,50.6956 L133.0316,50.6956 C133.9186,50.5426 135.4226,51.0066 135.9116,50.4556 L138.7916,50.4556 L141.4316,50.4556 L144.3116,50.4556 C145.1986,50.3026 146.7026,50.7666 147.1916,50.2156 C147.7656,50.0696 148.9326,50.5166 149.1116,49.9756 C142.7916,49.5766 134.7926,49.5766 128.4716,49.9756 L128.4716,49.9756 Z M103.7516,60.2956 C103.7606,58.7626 102.5446,57.1886 101.5916,57.4156 C101.9906,57.8966 102.4626,58.3056 102.5516,59.0956 C102.7116,71.3356 102.2316,84.2156 102.7916,96.0556 C102.7906,96.1896 102.9856,96.3276 103.0316,96.0556 C103.5786,95.7236 103.1216,94.3856 103.2716,93.6566 L103.2716,91.0146 L103.2716,88.3756 L103.2716,85.7366 C103.8206,85.3256 103.3596,83.9046 103.5116,83.0956 L103.5116,80.4556 L103.5116,77.8156 L103.5116,75.1756 C104.0606,74.7646 103.5996,73.3436 103.7516,72.5356 L103.7516,69.6556 L103.7516,67.0156 L103.7516,63.8956 C104.1496,63.2466 104.1496,60.9456 103.7516,60.2956 L103.7516,60.2956 Z M135.1916,60.0556 C135.0776,58.7246 133.9546,57.1386 133.0316,57.4156 C133.9616,58.2316 134.0846,59.1086 134.2316,60.2956 C135.6806,71.9406 132.9466,86.6916 134.4716,98.4556 L134.4716,98.2156 C135.0256,97.4096 134.5556,95.5796 134.7116,94.3756 L134.7116,91.4956 L134.7116,88.6166 C135.2626,88.1266 134.7986,86.6226 134.9516,85.7366 L134.9516,82.8556 L134.9516,79.9756 L134.9516,77.0956 C135.5026,76.6066 135.0386,75.1026 135.1916,74.2156 L135.1916,71.0956 L135.1916,68.2156 L135.1916,64.8556 C135.5906,63.8096 135.5906,61.1016 135.1916,60.0556 L135.1916,60.0556 Z" fill="#000000"></path>
<path d="M154.6312,48.5356 L154.8712,48.5356 C167.1762,48.4096 185.1962,46.6316 193.5112,51.8956 C197.7092,54.5526 200.7882,59.0356 200.9512,64.8556 C201.1902,73.3576 196.8092,78.0766 190.6322,80.6966 C197.7832,82.5836 203.1382,86.2686 204.0712,94.3756 L204.0712,98.4556 C202.7222,108.0666 196.1202,112.4256 186.0712,113.3356 L154.6312,113.3356 L154.6312,113.0966 C154.7772,110.7616 154.3312,107.8356 154.8712,105.8956 C157.2782,105.5816 159.3352,104.9186 160.1512,103.0156 L160.3912,103.0156 L160.3912,70.8556 C159.7472,66.8396 161.3742,61.6026 160.1512,58.6156 C159.2432,56.3966 156.9472,56.5886 154.6312,55.7356 L154.6312,48.5356 Z M181.0312,49.9756 C173.3512,49.4156 164.6322,49.8956 156.5512,49.7356 C156.1762,50.3876 156.0452,55.0846 156.7912,53.8156 C156.8012,53.0256 157.1972,52.6206 157.0312,51.6556 C157.0412,50.4656 158.4242,50.6486 159.6712,50.6956 L162.7912,50.6956 L169.0312,50.6956 L181.5112,50.6956 C186.3002,51.0276 190.2762,52.1706 193.2712,54.2956 C193.4622,54.8266 194.1112,54.8966 194.4712,55.2556 C194.8702,55.7376 195.1162,56.3716 195.9112,56.4556 C195.6782,55.4886 194.8632,55.1046 194.2312,54.5356 C194.1332,54.2346 193.9232,54.0456 193.5112,54.0556 C190.6692,51.3786 186.5122,50.0146 181.0312,49.9756 L181.0312,49.9756 Z M163.0312,59.8156 C162.9512,58.5306 161.6742,57.1796 160.8712,57.4156 C161.6622,57.7446 161.8412,58.6856 162.0712,59.5756 L162.0712,98.4556 C163.1162,98.2216 162.2852,96.1106 162.5512,95.0966 L162.5512,92.2166 C163.1002,91.8056 162.6392,90.3846 162.7912,89.5756 L162.7912,86.6966 L162.7912,83.8156 L162.7912,80.9356 C163.3422,80.4466 162.8782,78.9426 163.0312,78.0566 L163.0312,75.1756 L163.0312,72.2956 L163.0312,69.4156 C163.5832,68.8476 163.1172,67.2616 163.2712,66.2956 L163.2712,63.1756 C163.1162,62.1306 163.5842,60.4626 163.0312,59.8156 L163.0312,59.8156 Z M174.3112,75.4156 C174.6472,75.8136 176.6152,75.8136 176.9512,75.4156 C183.4442,75.9076 186.4552,72.9196 187.0312,67.4956 C187.4292,67.0036 187.4292,64.8676 187.0312,64.3756 C186.8232,58.0236 181.8132,56.4746 174.5512,57.1756 C173.9912,62.7766 174.4712,69.4156 174.3112,75.4156 L174.3112,75.4156 Z M188.2312,60.0556 C187.8412,59.4066 187.5802,58.6276 186.7912,58.3756 C186.9982,59.2086 187.5402,59.7076 187.9912,60.2956 C190.4792,65.4436 188.6192,72.9506 185.1112,75.6556 C189.9602,73.9546 191.8282,64.5876 188.2312,60.0556 L188.2312,60.0556 Z M181.0312,85.9756 C179.2692,85.4176 176.4722,85.8946 174.3112,85.7366 C174.4712,91.7366 173.9912,98.3756 174.5512,103.9756 C174.8982,104.4296 175.0872,105.0396 175.9912,104.9356 C176.9572,105.3346 179.5852,105.3346 180.5512,104.9356 C192.0792,105.8166 191.0202,86.0226 181.0312,85.9756 L181.0312,85.9756 Z M189.9112,90.0566 C189.4202,89.4206 188.8082,87.6486 187.9912,88.1366 C188.7262,88.6816 188.9272,89.7596 189.6732,90.2956 C191.7322,94.3506 190.8782,101.0066 188.2312,103.7366 C187.6802,104.0656 187.4612,104.7246 187.0312,105.1766 C188.1632,104.7876 188.6982,103.8036 189.4312,103.0156 C192.4392,100.7076 192.6342,92.8566 189.9112,90.0566 L189.9112,90.0566 Z M156.5512,111.1766 C156.6102,110.1136 157.0432,109.4286 157.0312,108.2956 C158.6592,108.0006 160.4002,106.5486 160.391235,105.4156 C159.4462,106.5506 157.9952,107.1806 156.3112,107.5756 C155.9122,108.4626 155.9122,111.0096 156.3112,111.8956 C156.3242,111.5886 156.6192,111.5636 156.5512,111.1766 L156.5512,111.1766 Z" fill="#000000"></path>
<path d="M264.3114,48.5356 L264.5514,48.5356 C277.2084,48.7306 295.7444,46.2386 304.6314,51.6556 C308.9464,54.2856 311.8734,58.9236 312.5514,64.6156 L312.5514,67.4956 C311.8574,76.4026 306.8984,81.0426 299.8324,83.5756 C302.1934,85.3296 304.2084,85.2036 306.0714,86.9356 C308.0304,88.7566 309.5354,91.7026 310.6314,94.3756 C312.6214,99.2206 313.1794,105.0136 318.0714,106.8556 L318.0714,109.0156 L318.0714,113.0966 C318.1154,113.3006 317.9774,113.3216 317.8324,113.3356 L313.2714,113.3356 L305.5914,113.3356 C299.2954,112.5526 298.9334,105.3926 296.7114,98.9356 C295.1044,94.2656 293.6634,88.6076 289.7514,87.6556 C288.3884,87.0986 285.9944,87.5736 284.2314,87.4156 L283.9924,87.4156 C284.1514,92.3756 283.6714,97.9756 284.2314,102.5356 C284.7474,104.9816 287.0744,105.6136 289.5114,106.1366 C290.0514,108.0756 289.6064,111.0006 289.7514,113.3356 L264.3114,113.3356 L264.3114,106.3756 C266.5724,105.7566 268.7924,105.0966 269.8324,103.2556 C270.2634,93.7236 270.0714,80.9616 270.0714,69.8956 C270.0714,66.0926 270.8644,61.6476 270.0714,58.8556 C269.5064,56.8686 266.2814,55.7796 264.3114,55.4956 L264.3114,48.5356 Z M266.2314,49.9756 C265.9614,50.8126 265.5534,53.8476 266.4714,54.2956 L266.4714,53.5756 C266.4814,52.7856 266.8774,52.3806 266.7114,51.4156 C266.9454,51.5176 266.8804,51.2296 266.9524,51.1756 C268.9144,49.6756 275.6974,50.6956 279.1914,50.6956 L292.1514,50.6956 C297.1424,50.9846 301.2804,52.1266 304.3914,54.2956 C305.1604,54.7346 305.9904,56.3686 306.7914,55.9756 C306.1524,55.4146 305.8884,54.4786 304.8724,54.2956 C301.9574,51.3706 297.4994,49.9886 291.6714,49.9756 C283.7514,49.5756 274.1514,49.5756 266.2314,49.9756 L266.2314,49.9756 Z M272.7114,60.0556 C272.5974,58.7246 271.4744,57.1386 270.5514,57.4156 C271.4374,58.2286 271.5854,58.9186 271.7514,60.0556 C272.5704,65.6856 271.7524,72.7246 271.7514,79.2556 C271.7514,85.9386 271.5544,92.5326 271.9924,98.4556 C272.5484,97.1726 272.0734,94.8586 272.2314,93.1766 L272.2314,90.2956 C272.7834,89.8066 272.3184,88.3036 272.4714,87.4156 L272.4714,84.5356 L272.4714,81.8956 L272.4714,78.7766 C273.0204,78.3646 272.5594,76.9446 272.7114,76.1356 L272.7114,73.0156 L272.7114,70.1356 L272.7114,67.0156 C273.2624,66.5266 272.7974,65.0226 272.9524,64.1356 C272.7944,62.8516 273.2664,60.9406 272.7114,60.0556 L272.7114,60.0556 Z M284.2314,77.5756 C286.4724,77.4166 289.3494,77.8946 291.1914,77.3356 C299.3414,77.0646 300.0164,59.8186 292.8724,57.4156 C290.2704,56.5406 287.8904,57.5556 284.2314,57.1756 C283.8324,63.4166 283.8324,71.3356 284.2314,77.5756 L284.2314,77.5756 Z M298.6314,60.2956 C298.2134,59.5936 297.9224,58.7646 297.1914,58.3756 C297.3784,59.3076 297.8634,59.9436 298.3914,60.5356 C299.0054,62.3216 299.5904,64.1366 299.8324,66.2956 L299.8324,68.6956 C299.4304,71.6546 298.6854,74.2696 297.1914,76.1356 C296.7714,76.7556 295.9544,76.9776 295.7514,77.8156 C296.9644,77.3486 297.5784,76.2816 298.3914,75.4156 C299.7124,73.9376 300.7124,72.1376 300.7914,69.4156 C301.1884,69.1566 301.1884,67.2746 300.7914,67.0156 C300.7264,64.1206 299.7614,62.1256 298.6314,60.2956 L298.6314,60.2956 Z M302.4714,108.2956 C300.4084,100.7606 299.2644,92.3026 294.0714,87.8956 C297.8764,93.6116 299.6674,101.3416 301.9924,108.5356 C302.4854,109.6426 303.1704,110.5566 304.3914,110.9356 C303.8174,109.9896 302.8474,109.4396 302.4714,108.2956 L302.4714,108.2956 Z M266.2314,111.1766 C266.3894,110.2936 266.6974,109.5626 266.7114,108.5356 C268.3544,108.0186 269.5984,107.1026 270.3114,105.6556 C269.0514,106.2366 268.3004,107.3246 266.7114,107.5756 C264.8414,106.9446 265.8684,114.0116 266.2314,111.1766 L266.2314,111.1766 Z" fill="#000000"></path>
</g>
</svg>