<?xml version="1.0" encoding="UTF-8"?>
<svg width="220px" height="32px" viewBox="0 0 220 32" version="1.1" xmlns="http://www.w3.org/2000/svg" xmlns:xlink="http://www.w3.org/1999/xlink">
    <title>Umbrella Inc (dark)</title>
    <desc>Umbrella Inc (dark) logo</desc>
    <defs>
        <polygon id="path-1" points="0 0.0041172555 11.5710139 0.0041172555 11.5710139 3.32799049 0 3.32799049"></polygon>
        <polygon id="path-3" points="0.0421334875 0.197242095 11.7182908 0.197242095 11.7182908 22.9800307 0.0421334875 22.9800307"></polygon>
        <polygon id="path-5" points="0.293802435 0.189536762 13.0503401 0.189536762 13.0503401 22.69838 0.293802435 22.69838"></polygon>
    </defs>
    <g id="Page-1" stroke="none" stroke-width="1" fill="none" fill-rule="evenodd">
        <g id="Group-22">
            <g id="Group-3">
                <mask id="mask-2" fill="white">
                    <use xlink:href="#path-1"></use>
                </mask>
                <g id="Clip-2"></g>
                <path d="M10.3255823,0.0041172555 C11.4403628,0.400015873 11.9410856,1.84358986 11.2642775,2.8119616 C11.1176464,3.02323144 10.8250245,3.16882796 10.5676197,3.2679575 C10.36208,3.34726114 10.1078768,3.32433743 9.87544409,3.32495699 C7.13043318,3.32805479 4.38542227,3.32929391 1.64041135,3.32619611 C0.35402765,3.32433743 0.0485995634,2.9916339 0.00313752122,1.75189503 C-0.0269570701,0.918587302 0.143365511,0.26247363 1.06797381,0.0041172555 L10.3255823,0.0041172555 Z" id="Fill-1" fill="#1D1D1B" mask="url(#mask-2)"></path>
            </g>
            <path d="M38.4605384,21.8319855 C39.0987492,19.9508403 39.695974,18.1962611 40.289946,16.4410395 C41.0159839,14.2945552 41.7374679,12.1467859 42.4648071,10.0003015 C42.7627689,9.12204821 43.186291,8.81430621 44.1348245,8.79567465 C44.5895741,8.7866801 45.0508294,8.77061841 45.5003745,8.82715556 C46.2693502,8.92288324 46.5699143,9.26788836 46.626514,10.0221454 C46.640176,10.197539 46.6349715,10.3748601 46.6349715,10.5508962 C46.6349715,16.938952 46.635622,23.3263652 46.6349715,29.714421 C46.6349715,31.1233525 46.3220465,31.4285246 44.882982,31.4285246 L44.4659655,31.4285246 C43.3294168,31.4240273 42.9176049,31.0256974 42.9169544,29.9129435 C42.9143521,26.1512954 42.9156532,22.3890049 42.9156532,18.6267145 L42.9156532,18.218105 C42.8824741,18.2091105 42.8492949,18.2001159 42.8154652,18.1911214 C42.6066317,18.8175273 42.3938947,19.4413634 42.1896152,20.0690543 C41.438205,22.3723008 40.6926498,24.6781171 39.9373361,26.9800787 C39.6666983,27.8069345 39.2444773,28.1423027 38.5106324,28.1512972 C37.7345004,28.1615767 37.2517763,27.7812358 36.977235,26.935106 C36.0592784,24.1108182 35.1432735,21.285888 34.2240157,18.4622427 C34.1908366,18.3613753 34.1322851,18.2682175 34.0151822,18.0253647 L34.0151822,25.1060006 C34.0151822,26.7121697 34.0216879,28.3189813 34.0125799,29.9257928 C34.0060742,31.0603907 33.6202852,31.4253123 32.4635688,31.4285246 C30.6478233,31.4323794 30.4149186,31.2017335 30.4149186,29.3976844 C30.4149186,23.1278427 30.4136175,16.8573586 30.4181715,10.5875169 C30.4181715,10.2958366 30.4357369,9.999659 30.4903849,9.7137609 C30.5795132,9.245402 30.8742222,8.90553662 31.3601992,8.87791051 C32.0660695,8.83807751 32.7843006,8.82008842 33.482364,8.90682155 C34.0444579,8.97685052 34.2929763,9.45805878 34.4647272,9.9720329 C35.7216317,13.7336809 36.9902465,17.4908317 38.2556084,21.2505523 C38.3050518,21.3970349 38.3590493,21.5435175 38.4605384,21.8319855" id="Fill-4" fill="#1D1D1B"></path>
            <path d="M69.0498592,18.0530425 C69.8926939,18.0530425 70.6751427,18.1064409 71.4466705,18.0388887 C72.2940021,17.9642595 72.7565333,17.4437856 72.7809447,16.6093546 C72.8104953,15.5928542 72.8098529,14.5737804 72.7815871,13.5572801 C72.7578181,12.7222057 72.2972141,12.1901514 71.4588762,12.1155222 C70.6706458,12.0460399 69.8714946,12.1013684 69.0498592,12.1013684 L69.0498592,18.0530425 Z M69.0460048,28.1479206 C69.8143206,28.1479206 70.518396,28.1730114 71.2205441,28.1427738 C72.3890779,28.0919488 72.906856,27.5290134 72.9087832,26.3529611 C72.9113528,25.1968527 72.916492,24.0413878 72.906856,22.8852794 C72.8997895,22.0675756 72.4982867,21.4731159 71.7132684,21.386263 C70.8351014,21.2884731 69.9383047,21.3637456 69.0460048,21.3637456 L69.0460048,28.1479206 Z M74.3753927,19.6517788 C75.662129,20.0455119 76.3771252,20.8715793 76.607106,22.0810861 C76.7015395,22.5758258 76.6899762,23.095013 76.6957579,23.6032632 C76.7079635,24.642281 76.6617104,25.6838722 76.7073211,26.7222467 C76.8203843,29.3156093 75.1527022,30.7985418 73.0700267,31.1800512 C71.9837207,31.3794911 70.8556583,31.3711275 69.7449409,31.4103721 C68.7273721,31.4451133 67.7078762,31.4200225 66.6890226,31.4168057 C65.6605329,31.4135889 65.2783022,31.0462334 65.2275523,30.0168659 C65.2198434,29.8605307 65.2236979,29.7029088 65.2236979,29.5459303 C65.2236979,23.2487748 65.2236979,16.9516193 65.2243403,10.6551071 C65.2243403,10.4395833 65.2275523,10.2234162 65.2448972,10.0091791 C65.3097801,9.2082025 65.6091406,8.78551848 66.383238,8.7880919 C68.5712678,8.7951688 70.7779274,8.73340675 72.9415458,8.99653881 C75.3518476,9.2905519 76.5781978,10.9317497 76.5807674,13.3494765 C76.5814099,14.4277389 76.6019668,15.5079314 76.5441504,16.5836204 C76.4677043,17.9874203 75.8895402,19.0939903 74.3753927,19.6517788 Z" id="Fill-6" fill="#1D1D1B"></path>
            <path d="M99.2061888,12.209535 L99.2061888,19.15306 C99.9813918,19.15306 100.718588,19.1735745 101.453819,19.1479314 C102.527177,19.1107488 103.164115,18.5139044 103.198845,17.4586886 C103.238162,16.2867965 103.236196,15.11234 103.201466,13.9404479 C103.170012,12.9025412 102.552733,12.2697964 101.540972,12.2172279 C100.785427,12.1781221 100.025296,12.209535 99.2061888,12.209535 M104.605088,21.8705932 C105.456304,24.3278485 106.292449,26.7395871 107.126627,29.1519668 C107.228197,29.4468631 107.336974,29.7404772 107.412332,30.0424253 C107.611539,30.8386452 107.243923,31.3386867 106.416953,31.4201038 C106.377636,31.4239502 106.337663,31.4226681 106.297691,31.4226681 C104.26696,31.4290789 103.942594,31.5739627 103.289274,29.3744212 C102.645784,27.2069336 101.88041,25.0740642 101.205466,22.9155517 C101.083582,22.527058 100.900102,22.4469231 100.533142,22.4469231 C99.1662164,22.4475642 99.1662164,22.437948 99.1662164,23.7489543 C99.1662164,25.7805331 99.1701481,27.8127531 99.1655611,29.8456141 C99.16294,31.0662282 98.79598,31.4213859 97.5653534,31.4233092 C97.2259154,31.4233092 96.8851668,31.438054 96.5470394,31.4181805 C95.7325192,31.3726639 95.3039623,30.9463465 95.3033071,30.1430747 C95.2980648,23.4797011 95.2987201,16.8156865 95.3026518,10.1516719 C95.3033071,9.3958399 95.6230865,8.9201594 96.3517642,8.89964487 C98.7795978,8.83297267 101.229711,8.58487516 103.624125,9.13876729 C105.864547,9.65740007 106.932663,10.9530204 107.044717,13.2064126 C107.124661,14.8046222 107.104348,16.4105247 107.06503,18.0112986 C107.023092,19.7152861 106.312762,21.0647571 104.605088,21.8705932" id="Fill-8" fill="#1D1D1B"></path>
            <g id="Group-12" transform="translate(0.000000, 8.786482)">
                <mask id="mask-4" fill="white">
                    <use xlink:href="#path-3"></use>
                </mask>
                <g id="Clip-11"></g>
                <path d="M11.7155914,10.222922 C11.7155914,12.8898822 11.7228196,15.5555658 11.7136201,18.2218877 C11.7044205,20.8211845 10.5308244,22.2657348 7.9332736,22.7725721 C6.34898447,23.0821642 4.74826762,23.0591842 3.18040621,22.6117119 C1.32341697,22.0818945 0.295041816,20.8639529 0.132078853,19.0019321 C0.0808243728,18.4216863 0.047311828,17.8382488 0.0466547192,17.2567264 C0.040083632,12.1768629 0.0413978495,7.09699949 0.0459976105,2.01777436 C0.0459976105,1.72797064 0.0729390681,1.43497525 0.120250896,1.14900154 C0.203046595,0.651739205 0.517801673,0.337040451 1.03034648,0.280228708 C1.5448626,0.2240553 2.06726404,0.194691927 2.5844086,0.213203618 C3.54247312,0.248311999 3.94922342,0.675995904 3.95185185,1.61817716 C3.95776583,3.79808841 3.95185185,5.97799966 3.95448029,8.15727257 C3.95842294,11.3878819 3.96367981,14.6184912 3.97287933,17.8491005 C3.97485066,18.5276498 4.14569892,19.1730056 4.85800478,19.4321693 C5.64456392,19.718143 6.48632019,19.7641031 7.21965352,19.2745008 C7.76242533,18.9106503 7.83733572,18.3016795 7.83733572,17.7035603 C7.83996416,15.0563885 7.83864994,12.4098549 7.83864994,9.76268305 C7.83864994,7.07657279 7.83733572,4.39110087 7.83930705,1.70499061 C7.83996416,0.637057518 8.25328554,0.229161973 9.35919952,0.206820276 C9.73966547,0.199160266 10.123417,0.183201912 10.4999403,0.2240553 C11.3607527,0.318528759 11.6833931,0.677910906 11.7136201,1.5237037 C11.7221625,1.77648404 11.7155914,2.02926438 11.7155914,2.28268305 L11.7155914,10.222922 Z" id="Fill-10" fill="#1D1D1B" mask="url(#mask-4)"></path>
            </g>
            <g id="Group-15" transform="translate(206.820276, 8.786482)">
                <mask id="mask-6" fill="white">
                    <use xlink:href="#path-5"></use>
                </mask>
                <g id="Clip-14"></g>
                <path d="M8.10641504,14.5242093 C7.61012362,11.4008401 7.12026918,8.31640928 6.62977105,5.23261683 L6.51068686,5.22495682 C6.01890132,8.31513262 5.52711579,11.4059467 5.03082437,14.5242093 L8.10641504,14.5242093 Z M4.53775144,17.6922618 C4.33820496,18.9102034 4.13415259,20.0923984 3.95391705,21.2771466 C3.79492356,22.318908 3.38038183,22.6897802 2.31377368,22.6942485 C2.05822544,22.6955252 1.8033209,22.6987168 1.54841636,22.6936102 C0.590593227,22.6763751 0.185706971,22.2486912 0.318308829,21.2848066 C0.448335893,20.343902 0.655606759,19.4138491 0.829405311,18.4793279 C1.75761832,13.5003212 2.68518762,8.52195289 3.61340063,3.54294624 C3.7414966,2.85609865 3.85993709,2.1679744 4.00219443,1.48368015 C4.18629215,0.602778973 4.58731622,0.247226831 5.49235608,0.21211845 C6.25706971,0.182755078 7.02435813,0.180840075 7.78907176,0.213395119 C8.69733011,0.25169517 9.08612391,0.618737327 9.25477288,1.49900017 C10.5003292,8.01830722 11.7465291,14.5369759 12.9920854,21.0550063 C13.2141614,22.2174129 12.8118499,22.6916952 11.6074903,22.6948868 C11.2740546,22.6955252 10.9393314,22.7038235 10.6065394,22.6923335 C9.8270207,22.6636085 9.39445542,22.3329514 9.25348548,21.577802 C9.03591544,20.4147571 8.87305976,19.2408606 8.65613342,18.076539 C8.62909809,17.9309988 8.41796504,17.7120502 8.28858167,17.7088585 C7.05461195,17.6807718 5.81999854,17.6922618 4.53775144,17.6922618 Z" id="Fill-13" fill="#1D1D1B" mask="url(#mask-6)"></path>
            </g>
            <path d="M129.621589,28.0736377 C131.184317,28.0736377 132.739289,28.0723526 134.294261,28.0742803 C135.422036,28.0755654 135.819504,28.4643104 135.84988,29.5868518 C135.888657,31.0486615 135.513163,31.4284108 134.02799,31.4284108 C131.781488,31.4284108 129.534987,31.4290533 127.288485,31.4277682 C126.099313,31.4271257 125.71477,31.0518743 125.71477,29.8920648 C125.714124,23.3675742 125.714124,16.842441 125.71477,10.3173078 C125.715417,9.21083029 126.121286,8.79702568 127.251,8.79252781 C129.55696,8.78353206 131.862921,8.78545972 134.168235,8.79252781 C134.753127,8.79445547 135.389722,8.84071934 135.592657,9.49419649 C135.825321,10.2427716 135.953932,11.0690957 135.411696,11.7347814 C135.20359,11.9898752 134.728568,12.1325221 134.369877,12.1447306 C132.991342,12.1909945 131.610868,12.1633647 130.23104,12.1633647 L129.562131,12.1633647 L129.562131,18.2869018 C130.266586,18.2869018 130.965871,18.2862592 131.665803,18.2875444 C132.296581,18.2881869 132.927359,18.2721231 133.557491,18.2971827 C134.272287,18.3248125 134.672341,18.7495405 134.693668,19.4550645 C134.698838,19.6510434 134.694314,19.8463797 134.694314,20.0430012 C134.694314,21.3300363 134.403484,21.6134025 133.083761,21.6146876 C132.059393,21.6153301 131.035024,21.6191855 130.010009,21.6121174 C129.722411,21.6101897 129.519476,21.6346068 129.522707,22.0105007 C129.539511,23.969647 129.536926,25.9287934 129.543388,27.8885823 C129.543388,27.9239227 129.571825,27.9586206 129.621589,28.0736377" id="Fill-16" fill="#1D1D1B"></path>
            <path d="M180.799202,20.1136798 C180.799202,16.8407998 180.797883,13.5679198 180.799861,10.2950398 C180.799861,9.21779179 181.213136,8.79936193 182.321794,8.78714969 C182.800982,8.78200769 183.284784,8.80643217 183.759358,8.86556512 C184.308414,8.93498205 184.602386,9.28463773 184.655776,9.81554875 C184.680823,10.068792 184.686096,10.3239635 184.686096,10.5784923 C184.688073,16.1633419 184.695323,21.7488343 184.675549,27.3343267 C184.673572,27.8735935 184.819899,28.0387801 185.377524,28.0207831 C186.621963,27.9802899 187.869697,27.9957159 189.114795,28.0124274 C190.228726,28.0278533 190.585975,28.395506 190.597839,29.4721113 C190.618931,31.2017499 190.387577,31.4279977 188.5954,31.4279977 C186.505296,31.4279977 184.415193,31.429926 182.325089,31.4267122 C181.211158,31.424784 180.799861,31.0211374 180.799861,29.9316771 C180.797883,26.6594398 180.799202,23.3865598 180.799202,20.1136798" id="Fill-18" fill="#1D1D1B"></path>
            <path d="M157.620613,28.0083833 C159.066888,28.0083833 160.430142,28.0019557 161.793396,28.0128827 C162.130751,28.0160966 162.502367,27.9968135 162.797552,28.123439 C163.903179,28.5958743 163.478191,29.5889525 163.506524,30.3962705 C163.52629,30.9548368 163.064405,31.3308567 162.450974,31.4150594 C162.312606,31.4336997 162.170284,31.427272 162.029281,31.427272 C159.778495,31.4279148 157.527709,31.4298431 155.276923,31.427272 C154.138352,31.4253437 153.763441,31.0570371 153.763441,29.9489032 L153.763441,10.2461027 C153.763441,9.19646084 154.162072,8.79537294 155.250567,8.78701694 C155.730243,8.78316033 156.21519,8.79922956 156.688935,8.86607754 C157.293142,8.95092306 157.56856,9.3616525 157.615342,9.93050313 C157.630497,10.1059791 157.620613,10.2833833 157.620613,10.4595021 L157.620613,27.2209912 L157.620613,28.0083833 Z" id="Fill-20" fill="#1D1D1B"></path>
        </g>
    </g>
</svg>